<?xml version="1.0" encoding="UTF-8"?>
<!-- Created with Inkscape (http://www.inkscape.org/) -->
<svg width="290.8" height="294.73" version="1.1" viewBox="0 0 290.8 294.73" xml:space="preserve" xmlns="http://www.w3.org/2000/svg"><g transform="matrix(1.3333 0 0 -1.3333 0 294.73)"><g transform="scale(.1)"><path d="m172.15 2025.4h1831.5v-1244.1h-1831.5v1244.1" fill="#fff"/><path d="m207.37 1991.3h1761.1v-1174.1h-1761.1v1174.1" fill="#254aa5"/><g fill="#fff200"><path d="m1050.4 1735.5 37.16 27.12 37.17-27.12-14.14 43.86 37.73 27.11h-46.52l-14.24 44.39-14.24-44.43-46.49 0.04 37.71-27.11-14.14-43.86"/><path d="m858.07 1683.8 37.164 27.12 37.133-27.12-14.117 43.86 37.719 27.12h-46.524l-14.238 44.44-14.238-44.49-46.496 0.05 37.719-27.12-14.122-43.86"/><path d="m754.52 1658.2-14.239-44.48-46.5 0.05 37.723-27.12-14.145-43.86 37.161 27.12 37.164-27.12-14.141 43.86 37.715 27.12h-46.5l-14.238 44.43"/><path d="m702.9 1377.8 37.133-27.12-14.113 43.86 37.719 27.11h-46.5l-14.239 44.44-14.238-44.54-46.523 0.1 37.746-27.11-14.149-43.86 37.164 27.12"/><path d="m768.75 1229-14.238 44.44-14.239-44.49-46.5 0.05 37.723-27.12-14.145-43.86 37.161 27.17 37.164-27.17-14.141 43.86 37.715 27.12h-46.5"/><path d="m909.73 1088.1-14.238 44.39-14.219-44.44-46.523 0.05 37.723-27.12-14.118-43.86 37.164 27.12 37.133-27.12-14.117 43.86 37.719 27.12h-46.524"/><path d="m1101.8 1037-14.24 44.44-14.22-44.48-46.52 0.04 37.72-27.11-14.12-43.86 37.16 27.121 37.14-27.121-14.14 43.86 37.74 27.11h-46.52"/><path d="m1293.9 1088.1-14.21 44.39-14.27-44.44-46.47 0.05 37.69-27.12-14.12-43.86 37.17 27.12 37.16-27.12-14.17 43.86 37.74 27.12h-46.52"/><path d="m1434.9 1229-14.26 44.44-14.26-44.49-46.48 0.05 37.75-27.12-14.17-43.86 37.16 27.17 37.16-27.17-14.17 43.86 37.75 27.12h-46.48"/><path d="m1532.4 1422.2h-46.52l-14.26 44.43-14.22-44.48-46.52 0.05 37.74-27.12-14.12-43.86 37.12 27.17 37.16-27.17-14.12 43.86 37.74 27.12"/><path d="m1383.5 1543.4 37.16 27.12 37.16-27.12-14.17 43.86 37.75 27.07h-46.48l-14.26 44.43-14.26-44.48-46.48 0.05 37.75-27.07-14.17-43.86"/><path d="m1280.2 1799.2-14.2-44.49-46.53 0.1 37.7-27.17-14.12-43.85 37.2 27.16 37.11-27.16-14.11 43.85 37.75 27.17h-46.58l-14.22 44.39"/></g><g fill="#254aa5"><path d="m609.47 482.85v150.32h103.05v-25.434h-72.704v-35.578h62.754v-25.43h-62.754v-63.878h-30.347"/><path d="m809.01 482.85v16.296c-3.965-5.808-9.18-10.386-15.633-13.738-6.469-3.351-13.281-5.019-20.461-5.019-7.312 0-13.879 1.597-19.687 4.82-5.809 3.211-10.016 7.719-12.614 13.527-2.597 5.813-3.894 13.84-3.894 24.102v68.898h28.812v-50.039c0-15.308 0.528-24.687 1.594-28.14 1.055-3.457 2.984-6.188 5.789-8.2 2.805-2.027 6.359-3.027 10.664-3.027 4.922 0 9.332 1.348 13.227 4.047 3.898 2.703 6.562 6.051 8 10.051 1.433 3.992 2.152 13.789 2.152 29.379v45.929h28.813v-108.89h-26.762"/><path d="m964.66 482.85h-28.812v55.57c0 11.758-0.614 19.359-1.844 22.816-1.231 3.453-3.234 6.133-5.996 8.051-2.774 1.91-6.106 2.871-10 2.871-4.992 0-9.469-1.371-13.434-4.101-3.965-2.739-6.683-6.36-8.148-10.868-1.477-4.511-2.207-12.851-2.207-25.019v-49.32h-28.817v108.89h26.766v-15.988c9.5 12.301 21.465 18.449 35.887 18.449 6.359 0 12.168-1.14 17.433-3.429 5.262-2.29 9.242-5.211 11.942-8.77 2.703-3.551 4.582-7.59 5.644-12.102 1.055-4.507 1.586-10.968 1.586-19.378v-67.668"/><path d="m1016.8 539.65c0-11.617 1.61-20.027 4.82-25.218 4.65-7.52 11.15-11.282 19.49-11.282 6.63 0 12.27 2.821 16.92 8.461 4.64 5.641 6.97 14.063 6.97 25.27 0 12.512-2.26 21.519-6.77 27.019s-10.29 8.262-17.33 8.262c-6.83 0-12.56-2.719-17.18-8.148-4.61-5.442-6.92-13.563-6.92-24.364zm76.91-56.796h-26.76v15.988c-4.45-6.219-9.69-10.852-15.75-13.891-6.04-3.039-12.14-4.558-18.3-4.558-12.51 0-23.22 5.031-32.15 15.121-8.909 10.078-13.374 24.148-13.374 42.199 0 18.449 4.34 32.48 13.024 42.09 8.68 9.597 19.65 14.398 32.91 14.398 12.17 0 22.7-5.051 31.59-15.168v54.141h28.81v-150.32"/><path d="m1186.9 546.63c-0.2 8.34-2.35 14.672-6.45 19.019-4.1 4.34-9.09 6.512-14.97 6.512-6.29 0-11.49-2.289-15.59-6.871-4.1-4.578-6.12-10.801-6.05-18.66zm-1.64-29.129 28.71-4.809c-3.69-10.531-9.52-18.55-17.48-24.05-7.96-5.512-17.93-8.25-29.89-8.25-18.93 0-32.95 6.179-42.04 18.558-7.18 9.91-10.76 22.422-10.76 37.52 0 18.051 4.72 32.179 14.15 42.402 9.43 10.219 21.36 15.328 35.78 15.328 16.2 0 28.98-5.347 38.35-16.039 9.37-10.699 13.85-27.09 13.44-49.172h-72.19c0.21-8.547 2.53-15.199 6.97-19.937 4.45-4.762 9.98-7.129 16.61-7.129 4.52 0 8.3 1.226 11.38 3.687s5.4 6.43 6.97 11.891"/><path d="m1261.9 539.65c0-11.617 1.61-20.027 4.83-25.218 4.65-7.52 11.14-11.282 19.48-11.282 6.63 0 12.27 2.821 16.91 8.461 4.65 5.641 6.98 14.063 6.98 25.27 0 12.512-2.25 21.519-6.77 27.019-4.51 5.5-10.28 8.262-17.33 8.262-6.83 0-12.55-2.719-17.17-8.148-4.61-5.442-6.93-13.563-6.93-24.364zm76.91-56.796h-26.76v15.988c-4.45-6.219-9.69-10.852-15.74-13.891s-12.15-4.558-18.3-4.558c-12.51 0-23.23 5.031-32.15 15.121-8.92 10.078-13.38 24.148-13.38 42.199 0 18.449 4.34 32.48 13.02 42.09 8.68 9.597 19.65 14.398 32.92 14.398 12.16 0 22.69-5.051 31.58-15.168v54.141h28.81v-150.32"/><path d="m1453 539.65c0-11.277 1.78-19.617 5.33-25.019 4.99-7.649 11.62-11.481 19.89-11.481 6.36 0 11.78 2.711 16.25 8.153 4.49 5.429 6.72 14 6.72 25.687 0 12.442-2.25 21.41-6.77 26.91-4.51 5.5-10.29 8.262-17.33 8.262-6.9 0-12.65-2.691-17.23-8.051-4.58-5.371-6.86-13.519-6.86-24.461zm-28.61-56.796v150.32h28.81v-54.141c8.89 10.117 19.42 15.168 31.59 15.168 13.26 0 24.22-4.801 32.91-14.398 8.68-9.61 13.02-23.403 13.02-41.379 0-18.59-4.42-32.91-13.28-42.961-8.85-10.051-19.6-15.07-32.24-15.07-6.23 0-12.36 1.55-18.41 4.66-6.05 3.109-11.26 7.711-15.64 13.789v-15.988h-26.76"/><path d="m1540.2 591.74h30.66l26.05-77.308 25.43 77.308h29.84l-38.45-104.79-6.88-18.969c-2.52-6.359-4.94-11.21-7.22-14.558-2.3-3.352-4.92-6.07-7.9-8.152-2.97-2.09-6.63-3.711-10.97-4.872-4.35-1.168-9.25-1.75-14.72-1.75-5.53 0-10.96 0.582-16.3 1.75l-2.56 22.551c4.51-0.879 8.57-1.328 12.19-1.328 6.7 0 11.66 1.969 14.88 5.891 3.21 3.937 5.67 8.949 7.38 15.027l-41.43 109.2"/><path d="m163.11 339.74v-22.968h-19.687v-43.879c0-8.891 0.187-14.071 0.566-15.539 0.371-1.473 1.231-2.68 2.559-3.641 1.34-0.961 2.961-1.43 4.875-1.43 2.664 0 6.527 0.918 11.586 2.758l2.461-22.348c-6.7-2.871-14.285-4.312-22.762-4.312-5.195 0-9.879 0.871-14.051 2.621-4.168 1.738-7.226 4-9.18 6.77-1.941 2.761-3.292 6.511-4.046 11.218-0.618 3.352-0.922 10.121-0.922 20.313v47.469h-13.231v22.968h13.231v21.641l28.914 16.812v-38.453h19.687"/><path d="m211.82 381.17v-55.274c9.297 10.872 20.407 16.301 33.325 16.301 6.632 0 12.613-1.23 17.945-3.687 5.332-2.461 9.348-5.602 12.047-9.43 2.699-3.832 4.547-8.07 5.535-12.723 0.992-4.648 1.488-11.859 1.488-21.629v-63.89h-28.812v57.531c0 11.418-0.547 18.66-1.641 21.738-1.094 3.071-3.027 5.512-5.789 7.332-2.773 1.809-6.242 2.719-10.41 2.719-4.785 0-9.059-1.172-12.817-3.488-3.761-2.32-6.511-5.832-8.257-10.512-1.739-4.691-2.614-11.601-2.614-20.762v-54.558h-28.812v150.33h28.812"/><path d="m376.09 294.62c-0.207 8.34-2.36 14.68-6.461 19.027-4.102 4.332-9.094 6.512-14.973 6.512-6.289 0-11.484-2.289-15.586-6.871-4.101-4.578-6.117-10.801-6.047-18.668zm-1.645-29.121 28.711-4.82c-3.687-10.52-9.519-18.539-17.476-24.039-7.969-5.512-17.934-8.262-29.895-8.262-18.933 0-32.949 6.191-42.043 18.562-7.176 9.918-10.765 22.43-10.765 37.528 0 18.051 4.718 32.179 14.152 42.402 9.434 10.219 21.359 15.328 35.785 15.328 16.199 0 28.984-5.347 38.352-16.039 9.363-10.711 13.839-27.09 13.429-49.172h-72.187c0.207-8.547 2.531-15.199 6.972-19.937 4.446-4.762 9.981-7.129 16.614-7.129 4.511 0 8.304 1.226 11.383 3.687 3.074 2.461 5.398 6.422 6.968 11.891"/><path d="m486.73 230.84v150.33h111.46v-25.434h-81.11v-33.328h75.469v-25.328h-75.469v-40.91h83.981v-25.332h-114.33"/><path d="m698.27 230.84v16.308c-3.965-5.808-9.18-10.386-15.633-13.738-6.465-3.351-13.281-5.031-20.461-5.031-7.317 0-13.875 1.609-19.688 4.82-5.808 3.223-10.015 7.731-12.613 13.539-2.598 5.813-3.894 13.84-3.894 24.094v68.906h28.812v-50.039c0-15.308 0.527-24.699 1.594-28.14 1.055-3.457 2.984-6.188 5.789-8.207 2.805-2.024 6.355-3.02 10.664-3.02 4.922 0 9.332 1.34 13.227 4.047 3.898 2.703 6.562 6.043 8 10.051 1.433 3.992 2.152 13.789 2.152 29.371v45.937h28.812v-108.9h-26.761"/><path d="m782.45 230.84h-28.812v108.9h26.761v-15.476c4.582 7.308 8.7 12.129 12.356 14.457 3.656 2.32 7.812 3.48 12.461 3.48 6.562 0 12.887-1.808 18.969-5.429l-8.922-25.122c-4.852 3.141-9.364 4.711-13.535 4.711-4.032 0-7.45-1.109-10.254-3.328-2.801-2.222-5.008-6.242-6.61-12.051-1.613-5.808-2.414-17.98-2.414-36.5v-33.64"/><path d="m859.46 285.29c0-10.801 2.563-19.07 7.691-24.809 5.125-5.742 11.45-8.609 18.969-8.609 7.52 0 13.824 2.867 18.914 8.609 5.094 5.739 7.645 14.079 7.645 25.02 0 10.66-2.551 18.871-7.645 24.609-5.09 5.743-11.394 8.61-18.914 8.61-7.519 0-13.844-2.867-18.969-8.61-5.128-5.738-7.691-14.019-7.691-24.82zm-29.531 1.539c0 9.57 2.359 18.832 7.074 27.793 4.719 8.949 11.398 15.789 20.047 20.508 8.644 4.711 18.305 7.07 28.969 7.07 16.472 0 29.972-5.347 40.504-16.039 10.527-10.711 15.789-24.219 15.789-40.558 0-16.473-5.317-30.133-15.95-40.973-10.629-10.828-24.007-16.25-40.14-16.25-9.981 0-19.5 2.262-28.559 6.769-9.058 4.512-15.941 11.122-20.66 19.852-4.715 8.711-7.074 19.32-7.074 31.828"/><path d="m992.56 287.14c0-12.243 2.425-21.282 7.277-27.129 4.858-5.84 10.768-8.762 17.738-8.762 6.7 0 12.27 2.68 16.72 8.051 4.44 5.359 6.66 14.168 6.66 26.398 0 11.422-2.29 19.903-6.87 25.43-4.58 5.543-10.25 8.312-17.02 8.312-7.04 0-12.89-2.722-17.537-8.16-4.644-5.429-6.968-13.48-6.968-24.14zm-28.508 52.597h26.863v-15.988c3.488 5.461 8.203 9.91 14.15 13.332 5.95 3.406 12.55 5.117 19.79 5.117 12.65 0 23.38-4.949 32.2-14.867 8.82-9.91 13.23-23.723 13.23-41.422 0-18.191-4.45-32.32-13.33-42.398-8.89-10.09-19.66-15.133-32.3-15.133-6.02 0-11.47 1.203-16.36 3.59-4.89 2.402-10.028 6.5-15.431 12.312v-54.859h-28.812v150.32"/><path d="m1157.8 294.62c-0.2 8.34-2.36 14.68-6.46 19.027-4.11 4.332-9.1 6.512-14.97 6.512-6.29 0-11.49-2.289-15.59-6.871-4.1-4.578-6.11-10.801-6.05-18.668zm-1.64-29.121 28.71-4.82c-3.69-10.52-9.52-18.539-17.48-24.039-7.97-5.512-17.93-8.262-29.89-8.262-18.94 0-32.95 6.191-42.04 18.562-7.19 9.918-10.77 22.43-10.77 37.528 0 18.051 4.71 32.179 14.15 42.402 9.43 10.219 21.36 15.328 35.79 15.328 16.2 0 28.98-5.347 38.35-16.039 9.36-10.711 13.83-27.09 13.42-49.172h-72.18c0.2-8.547 2.53-15.199 6.97-19.937 4.44-4.762 9.98-7.129 16.61-7.129 4.51 0 8.31 1.226 11.39 3.687 3.07 2.461 5.4 6.422 6.97 11.891"/><path d="m1270 283.14c-3.69-1.231-9.54-2.7-17.54-4.411-8-1.71-13.22-3.378-15.68-5.019-3.76-2.672-5.65-6.051-5.65-10.16 0-4.031 1.51-7.512 4.51-10.449 3.01-2.942 6.84-4.411 11.49-4.411 5.19 0 10.15 1.707 14.87 5.118 3.49 2.601 5.77 5.781 6.87 9.543 0.75 2.457 1.13 7.136 1.13 14.046zm-38.56 23.379-26.15 4.718c2.94 10.524 8 18.321 15.18 23.371 7.17 5.063 17.84 7.59 31.99 7.59 12.85 0 22.42-1.519 28.71-4.558 6.29-3.051 10.71-6.911 13.28-11.59 2.56-4.68 3.84-13.281 3.84-25.789l-0.3-33.633c0-9.57 0.46-16.629 1.38-21.18 0.92-4.539 2.65-9.41 5.18-14.609h-28.51c-0.75 1.922-1.67 4.762-2.76 8.519-0.48 1.7-0.82 2.832-1.03 3.379-4.92-4.789-10.18-8.367-15.79-10.769-5.6-2.387-11.59-3.59-17.95-3.59-11.21 0-20.04 3.051-26.5 9.133-6.46 6.078-9.69 13.769-9.69 23.066 0 6.152 1.47 11.641 4.41 16.461s7.06 8.512 12.35 11.07c5.3 2.571 12.94 4.813 22.92 6.723 13.47 2.527 22.8 4.887 28 7.066v2.883c0 5.528-1.37 9.481-4.1 11.84-2.74 2.359-7.9 3.539-15.49 3.539-5.13 0-9.12-1.012-11.99-3.031-2.87-2.02-5.2-5.547-6.98-10.609"/><path d="m1425.8 230.84h-28.81v55.582c0 11.758-0.61 19.359-1.84 22.808-1.23 3.461-3.24 6.141-6 8.059-2.77 1.91-6.1 2.871-10 2.871-4.99 0-9.47-1.371-13.43-4.109-3.97-2.731-6.69-6.352-8.15-10.86-1.48-4.519-2.21-12.859-2.21-25.019v-49.332h-28.82v108.9h26.77v-15.988c9.5 12.301 21.46 18.449 35.89 18.449 6.36 0 12.17-1.148 17.43-3.437 5.26-2.293 9.25-5.211 11.94-8.762 2.71-3.551 4.58-7.59 5.65-12.102 1.05-4.507 1.58-10.968 1.58-19.378v-67.68"/><path d="m1513.4 381.17h30.35v-81.422c0-12.922 0.37-21.289 1.12-25.121 1.3-6.149 4.4-11.09 9.28-14.82 4.89-3.727 11.57-5.59 20.05-5.59 8.61 0 15.11 1.761 19.48 5.293 4.38 3.508 7 7.84 7.9 12.968 0.88 5.122 1.33 13.629 1.33 25.532v83.16h30.35v-78.961c0-18.039-0.82-30.789-2.46-38.25-1.64-7.449-4.67-13.742-9.07-18.859-4.42-5.133-10.3-9.223-17.69-12.25-7.38-3.051-17.03-4.571-28.92-4.571-14.36 0-25.24 1.66-32.66 4.981-7.41 3.308-13.28 7.609-17.58 12.918-4.31 5.289-7.15 10.851-8.51 16.66-1.99 8.609-2.97 21.332-2.97 38.14v80.192"/><path d="m1764 230.84h-28.81v55.582c0 11.758-0.61 19.359-1.84 22.808-1.23 3.461-3.23 6.141-6 8.059-2.77 1.91-6.1 2.871-10 2.871-4.99 0-9.47-1.371-13.43-4.109-3.97-2.731-6.69-6.352-8.15-10.86-1.48-4.519-2.21-12.859-2.21-25.019v-49.332h-28.82v108.9h26.77v-15.988c9.5 12.301 21.47 18.449 35.89 18.449 6.36 0 12.17-1.148 17.43-3.437 5.27-2.293 9.25-5.211 11.95-8.762s4.58-7.59 5.64-12.102c1.05-4.507 1.58-10.968 1.58-19.378v-67.68"/><path d="m1793.3 230.84v108.9h28.81v-108.9zm0 123.67v26.66h28.81v-26.66h-28.81"/><path d="m1874.5 285.29c0-10.801 2.57-19.07 7.69-24.809 5.13-5.742 11.45-8.609 18.97-8.609s13.83 2.867 18.92 8.609c5.1 5.739 7.63 14.079 7.63 25.02 0 10.66-2.53 18.871-7.63 24.609-5.09 5.743-11.4 8.61-18.92 8.61s-13.84-2.867-18.97-8.61c-5.12-5.738-7.69-14.019-7.69-24.82zm-29.53 1.539c0 9.57 2.35 18.832 7.08 27.793 4.71 8.949 11.4 15.789 20.04 20.508 8.65 4.711 18.3 7.07 28.96 7.07 16.48 0 29.98-5.347 40.51-16.039 10.53-10.711 15.79-24.219 15.79-40.558 0-16.473-5.31-30.133-15.94-40.973-10.63-10.828-24.02-16.25-40.14-16.25-9.99 0-19.5 2.262-28.57 6.769-9.05 4.512-15.94 11.122-20.65 19.852-4.73 8.711-7.08 19.32-7.08 31.828"/><path d="m2078.9 230.84h-28.8v55.582c0 11.758-0.62 19.359-1.85 22.808-1.23 3.461-3.23 6.141-6 8.059-2.77 1.91-6.1 2.871-10 2.871-4.99 0-9.47-1.371-13.42-4.109-3.98-2.731-6.69-6.352-8.16-10.86-1.47-4.519-2.21-12.859-2.21-25.019v-49.332h-28.81v108.9h26.76v-15.988c9.51 12.301 21.47 18.449 35.89 18.449 6.36 0 12.17-1.148 17.43-3.437 5.27-2.293 9.25-5.211 11.95-8.762s4.58-7.59 5.64-12.102c1.06-4.507 1.58-10.968 1.58-19.378v-67.68"/></g></g></g></svg>
