<?xml version="1.0" encoding="UTF-8"?>
<svg width="180.86" height="110.82" version="1.1" viewBox="0 0 180.86 110.82" xmlns="http://www.w3.org/2000/svg">
 <defs>
  <style>.cls-1{fill:#212125;}.cls-2{fill:red;}.cls-3{fill:#fff;}</style>
 </defs>
 <g transform="translate(-.00034819 -24.058)" data-name="Ebene 2">
  <g id="En_-_KENNZEICHNUNG_hoch_p_o_s_i_t_i_v" data-name="En - KENNZEICHNUNG  hoch / p o s i t i v">
   <path d="m29.9 30.609a1.882 1.882 0 0 0 1.123 0.309 1.253 1.253 0 0 0 0.813-0.264 1.01 1.01 0 0 0 0.327-0.811 0.8 0.8 0 0 0-0.363-0.643 2.447 2.447 0 0 0-0.372-0.257c-0.14-0.08-0.283-0.16-0.43-0.238s-0.285-0.176-0.419-0.271a2.3 2.3 0 0 1-0.38-0.3 1.079 1.079 0 0 1-0.363-0.818 1.242 1.242 0 0 1 0.472-1.008 1.817 1.817 0 0 1 1.133-0.359 4.211 4.211 0 0 1 0.465 0.029 3.144 3.144 0 0 1 0.532 0.142l-0.081 0.469a2.211 2.211 0 0 0-1.309-0.157 1.094 1.094 0 0 0-0.358 0.157 0.78 0.78 0 0 0-0.253 0.272 0.86 0.86 0 0 0-0.1 0.436 0.615 0.615 0 0 0 0.1 0.345 1.031 1.031 0 0 0 0.259 0.278 3.346 3.346 0 0 0 0.38 0.239q0.2 0.121 0.423 0.249a2.925 2.925 0 0 1 0.8 0.569 1.286 1.286 0 0 1 0.27 0.392 1.34 1.34 0 0 1 0.093 0.517 1.305 1.305 0 0 1-0.529 1.133 1.955 1.955 0 0 1-1.135 0.349 2.724 2.724 0 0 1-1.146-0.226z"/>
   <path d="m36.734 27.954a1.915 1.915 0 0 0-0.8-0.2 1.263 1.263 0 0 0-1.022 0.441 1.742 1.742 0 0 0-0.373 1.16 1.718 1.718 0 0 0 0.366 1.12 1.174 1.174 0 0 0 0.979 0.482 2.14 2.14 0 0 0 0.839-0.173l0.042 0.441a2.982 2.982 0 0 1-0.951 0.135 1.592 1.592 0 0 1-1.33-0.609 2.229 2.229 0 0 1-0.443-1.4 2.069 2.069 0 0 1 0.507-1.447 1.72 1.72 0 0 1 1.323-0.557 2.656 2.656 0 0 1 0.568 0.051 1.916 1.916 0 0 1 0.2 0.047 1.115 1.115 0 0 1 0.124 0.051z"/>
   <path d="m38.24 25.645h0.454v2.444h0.014a1.366 1.366 0 0 1 0.45-0.532 1.308 1.308 0 0 1 0.7-0.2 1.1 1.1 0 0 1 1.011 0.451 2.272 2.272 0 0 1 0.255 1.176v2.29h-0.453v-2.286a3.879 3.879 0 0 0-0.028-0.481 1.123 1.123 0 0 0-0.125-0.382 0.739 0.739 0 0 0-0.728-0.366 0.926 0.926 0 0 0-0.853 0.473 1.967 1.967 0 0 0-0.245 0.991v2.05h-0.452z"/>
   <path d="m46.808 31.273h-0.554l-1.007-3.313h-0.018l-1.008 3.313h-0.554l-1.192-3.825h0.5l0.972 3.312h0.014l1.039-3.312h0.554l0.979 3.312h0.014l1.026-3.312h0.458z"/>
   <path d="m51.9 31.154a3.047 3.047 0 0 1-1.076 0.211 1.522 1.522 0 0 1-1.3-0.579 2.361 2.361 0 0 1-0.383-1.426 2.318 2.318 0 0 1 0.436-1.447 1.353 1.353 0 0 1 1.124-0.557 1.288 1.288 0 0 1 1.135 0.564 2.45 2.45 0 0 1 0.341 1.334v0.246h-2.537a1.627 1.627 0 0 0 0.313 1.028 1.058 1.058 0 0 0 0.909 0.438 1.809 1.809 0 0 0 0.569-0.1 1.848 1.848 0 0 0 0.473-0.188zm-0.222-2.061a1.91 1.91 0 0 0-0.214-0.921 0.807 0.807 0 0 0-0.736-0.413 0.963 0.963 0 0 0-0.793 0.42 1.516 1.516 0 0 0-0.3 0.914z"/>
   <path d="m54.211 26.425h-0.453v-0.625h0.453zm-0.453 1.023h0.453v3.825h-0.453z"/>
   <path d="m55.666 30.877 2.234-3.026h-2.218v-0.4h2.746v0.4l-2.3 3.019h2.3v0.4h-2.762z"/>
   <path d="m62.409 31.154a3.039 3.039 0 0 1-1.076 0.211 1.522 1.522 0 0 1-1.3-0.579 2.375 2.375 0 0 1-0.383-1.426 2.324 2.324 0 0 1 0.436-1.447 1.356 1.356 0 0 1 1.124-0.557 1.289 1.289 0 0 1 1.136 0.564 2.45 2.45 0 0 1 0.341 1.334v0.246h-2.541a1.632 1.632 0 0 0 0.312 1.028 1.061 1.061 0 0 0 0.91 0.438 1.814 1.814 0 0 0 0.569-0.1 1.839 1.839 0 0 0 0.472-0.188zm-0.222-2.061a1.909 1.909 0 0 0-0.213-0.921 0.809 0.809 0 0 0-0.737-0.413 0.966 0.966 0 0 0-0.793 0.42 1.515 1.515 0 0 0-0.3 0.914z"/>
   <path d="m64.263 28.3q0-0.531-0.029-0.853h0.454v0.732h0.012a1.643 1.643 0 0 1 0.369-0.575 0.8 0.8 0 0 1 0.582-0.249 1.48 1.48 0 0 1 0.32 0.044v0.491a1.184 1.184 0 0 0-0.334-0.044 0.77 0.77 0 0 0-0.444 0.135 1 1 0 0 0-0.284 0.367 1.916 1.916 0 0 0-0.145 0.488 3.014 3.014 0 0 0-0.05 0.543v1.893h-0.454z"/>
   <path d="m67.8 26.425h-0.454v-0.625h0.454zm-0.454 1.023h0.454v3.825h-0.454z"/>
   <path d="m69.315 30.719a2.006 2.006 0 0 0 0.964 0.243 0.916 0.916 0 0 0 0.582-0.187 0.6 0.6 0 0 0 0.241-0.495 0.649 0.649 0 0 0-0.27-0.536 3.222 3.222 0 0 0-0.617-0.337c-0.111-0.054-0.217-0.112-0.319-0.173a2.683 2.683 0 0 1-0.291-0.2 1.1 1.1 0 0 1-0.206-0.279 0.759 0.759 0 0 1-0.078-0.353 0.905 0.905 0 0 1 0.376-0.81 1.482 1.482 0 0 1 0.829-0.235 3.928 3.928 0 0 1 0.415 0.029 2.629 2.629 0 0 1 0.5 0.142l-0.042 0.411a2.189 2.189 0 0 0-0.824-0.179 1.052 1.052 0 0 0-0.565 0.132 0.47 0.47 0 0 0-0.17 0.191 0.654 0.654 0 0 0-0.064 0.315 0.363 0.363 0 0 0 0.081 0.224 0.788 0.788 0 0 0 0.21 0.18c0.087 0.051 0.187 0.1 0.3 0.157s0.22 0.107 0.326 0.166a2.062 2.062 0 0 1 0.632 0.421 1 1 0 0 1 0.277 0.73 0.98 0.98 0 0 1-0.117 0.5 1.04 1.04 0 0 1-0.311 0.337 1.633 1.633 0 0 1-0.864 0.25 3 3 0 0 1-1.034-0.182z"/>
   <path d="m75.515 27.954a1.923 1.923 0 0 0-0.8-0.2 1.265 1.265 0 0 0-1.015 0.446 1.742 1.742 0 0 0-0.373 1.16 1.718 1.718 0 0 0 0.366 1.12 1.174 1.174 0 0 0 0.979 0.482 2.14 2.14 0 0 0 0.839-0.173l0.042 0.441a2.98 2.98 0 0 1-0.95 0.135 1.591 1.591 0 0 1-1.33-0.609 2.223 2.223 0 0 1-0.443-1.4 2.064 2.064 0 0 1 0.506-1.447 1.721 1.721 0 0 1 1.323-0.557 2.65 2.65 0 0 1 0.568 0.051 1.859 1.859 0 0 1 0.2 0.047 1.115 1.115 0 0 1 0.124 0.051z"/>
   <path d="m77.021 25.645h0.454v2.444h0.014a1.358 1.358 0 0 1 0.45-0.532 1.308 1.308 0 0 1 0.7-0.2 1.1 1.1 0 0 1 1.011 0.451 2.272 2.272 0 0 1 0.255 1.176v2.29h-0.453v-2.286a3.874 3.874 0 0 0-0.029-0.481 1.1 1.1 0 0 0-0.124-0.382 0.739 0.739 0 0 0-0.728-0.366 0.925 0.925 0 0 0-0.853 0.473 1.956 1.956 0 0 0-0.245 0.991v2.05h-0.454z"/>
   <path d="m84.262 31.154a3.038 3.038 0 0 1-1.075 0.211 1.523 1.523 0 0 1-1.3-0.579 2.375 2.375 0 0 1-0.387-1.426 2.324 2.324 0 0 1 0.436-1.447 1.357 1.357 0 0 1 1.125-0.557 1.289 1.289 0 0 1 1.135 0.564 2.45 2.45 0 0 1 0.341 1.334v0.246h-2.537a1.632 1.632 0 0 0 0.312 1.028 1.061 1.061 0 0 0 0.91 0.438 1.814 1.814 0 0 0 0.569-0.1 1.839 1.839 0 0 0 0.472-0.188zm-0.222-2.061a1.909 1.909 0 0 0-0.213-0.921 0.809 0.809 0 0 0-0.737-0.413 0.966 0.966 0 0 0-0.793 0.42 1.515 1.515 0 0 0-0.3 0.914z"/>
   <path d="m88.613 26.037h2.479v0.447h-1.982v1.873h1.883v0.443h-1.883v2.023h2.071v0.447h-2.568z"/>
   <path d="m93.353 26.425h-0.453v-0.625h0.454zm-0.453 1.023h0.454v3.825h-0.454z"/>
   <path d="m98.082 31.273h-0.455v-0.608h-0.013a1.2 1.2 0 0 1-1.157 0.7 1.322 1.322 0 0 1-1.139-0.579 2.464 2.464 0 0 1-0.387-1.426 2.5 2.5 0 0 1 0.359-1.44 1.3 1.3 0 0 1 1.167-0.564 1.279 1.279 0 0 1 0.483 0.084 1.1 1.1 0 0 1 0.348 0.208 1.041 1.041 0 0 1 0.326 0.441h0.013v-2.444h0.455zm-2.653-1.913a3.094 3.094 0 0 0 0.05 0.548 2.161 2.161 0 0 0 0.174 0.529 1.145 1.145 0 0 0 0.347 0.363 0.853 0.853 0 0 0 0.533 0.158 0.865 0.865 0 0 0 0.523-0.158 1.109 1.109 0 0 0 0.338-0.382 2.358 2.358 0 0 0 0.238-1.062 3.274 3.274 0 0 0-0.049-0.558 2.02 2.02 0 0 0-0.189-0.51 1.128 1.128 0 0 0-0.338-0.39 0.93 0.93 0 0 0-0.523-0.143 0.917 0.917 0 0 0-0.533 0.145 0.988 0.988 0 0 0-0.342 0.375 1.851 1.851 0 0 0-0.174 0.511 3.349 3.349 0 0 0-0.055 0.574z"/>
   <path d="m102.84 30.958a2.337 2.337 0 0 1-0.382 1.367 1.594 1.594 0 0 1-1.352 0.568 3.146 3.146 0 0 1-0.671-0.081c-0.2-0.051-0.349-0.091-0.45-0.12l0.039-0.47a2.339 2.339 0 0 0 1.091 0.268 1.354 1.354 0 0 0 0.7-0.165 0.909 0.909 0 0 0 0.388-0.421 1.828 1.828 0 0 0 0.167-0.622q0.029-0.351 0.029-0.757h-0.015a1.2 1.2 0 0 1-1.125 0.748 1.319 1.319 0 0 1-1.22-0.645 1.855 1.855 0 0 1-0.256-0.615 2.862 2.862 0 0 1 0.27-2.093 1.3 1.3 0 0 1 1.167-0.564 2.228 2.228 0 0 1 0.643 0.084 1.214 1.214 0 0 1 0.514 0.436h0.014v-0.429h0.453zm-2.652-1.6a1.976 1.976 0 0 0 0.246 1.029 0.891 0.891 0 0 0 0.825 0.481 0.946 0.946 0 0 0 0.879-0.5 2.124 2.124 0 0 0 0.249-1.015 2.473 2.473 0 0 0-0.231-1.153 0.916 0.916 0 0 0-0.868-0.448 0.926 0.926 0 0 0-0.535 0.143 0.992 0.992 0 0 0-0.34 0.375 1.863 1.863 0 0 0-0.175 0.511 3.349 3.349 0 0 0-0.05 0.579z"/>
   <path d="m107.15 31.154a3.047 3.047 0 0 1-1.076 0.211 1.521 1.521 0 0 1-1.3-0.579 2.368 2.368 0 0 1-0.384-1.426 2.331 2.331 0 0 1 0.437-1.447 1.353 1.353 0 0 1 1.124-0.557 1.289 1.289 0 0 1 1.135 0.564 2.45 2.45 0 0 1 0.341 1.334v0.246h-2.539a1.627 1.627 0 0 0 0.313 1.028 1.059 1.059 0 0 0 0.909 0.438 1.8 1.8 0 0 0 0.569-0.1 1.848 1.848 0 0 0 0.473-0.188zm-0.223-2.061a1.909 1.909 0 0 0-0.213-0.921 0.807 0.807 0 0 0-0.736-0.413 0.963 0.963 0 0 0-0.793 0.42 1.516 1.516 0 0 0-0.3 0.914z"/>
   <path d="m109 28.345c0-0.293-9e-3 -0.592-0.029-0.9h0.443v0.681h0.014a2.462 2.462 0 0 1 0.152-0.271 1.042 1.042 0 0 1 0.217-0.245 1.008 1.008 0 0 1 0.34-0.191 1.593 1.593 0 0 1 0.485-0.066 1.141 1.141 0 0 1 0.981 0.421 1.785 1.785 0 0 1 0.283 1.048v2.448h-0.453v-2.326a1.679 1.679 0 0 0-0.2-0.87 0.793 0.793 0 0 0-0.686-0.315 0.937 0.937 0 0 0-0.86 0.448 1.424 1.424 0 0 0-0.182 0.443 2.322 2.322 0 0 0-0.057 0.506v2.117h-0.453z"/>
   <path d="m113.48 29.36a2.312 2.312 0 0 1 0.423-1.4 1.521 1.521 0 0 1 1.3-0.608 1.548 1.548 0 0 1 1.323 0.608 2.58 2.58 0 0 1 0 2.785 1.55 1.55 0 0 1-1.323 0.616 1.524 1.524 0 0 1-1.3-0.616 2.316 2.316 0 0 1-0.423-1.385zm0.5 0a1.884 1.884 0 0 0 0.32 1.128 1.037 1.037 0 0 0 0.912 0.474 1.071 1.071 0 0 0 0.925-0.474 1.944 1.944 0 0 0 0.306-1.128 2 2 0 0 0-0.306-1.142 1.083 1.083 0 0 0-0.925-0.459 1.047 1.047 0 0 0-0.912 0.459 1.939 1.939 0 0 0-0.322 1.142z"/>
   <path d="m118.24 30.719a2 2 0 0 0 0.964 0.243 0.918 0.918 0 0 0 0.582-0.187 0.6 0.6 0 0 0 0.24-0.495 0.644 0.644 0 0 0-0.27-0.536 3.163 3.163 0 0 0-0.617-0.337c-0.111-0.054-0.217-0.112-0.319-0.173a2.67 2.67 0 0 1-0.29-0.2 1.074 1.074 0 0 1-0.206-0.279 0.759 0.759 0 0 1-0.078-0.353 0.905 0.905 0 0 1 0.376-0.81 1.478 1.478 0 0 1 0.829-0.235 3.946 3.946 0 0 1 0.415 0.029 2.629 2.629 0 0 1 0.5 0.142l-0.042 0.411a2.189 2.189 0 0 0-0.824-0.179 1.05 1.05 0 0 0-0.565 0.132 0.465 0.465 0 0 0-0.171 0.191 0.655 0.655 0 0 0-0.063 0.315 0.357 0.357 0 0 0 0.081 0.224 0.788 0.788 0 0 0 0.21 0.18c0.087 0.051 0.186 0.1 0.3 0.157s0.219 0.107 0.326 0.166a2.074 2.074 0 0 1 0.632 0.421 1.115 1.115 0 0 1 0.16 1.233 1.043 1.043 0 0 1-0.312 0.337 1.628 1.628 0 0 1-0.864 0.25 3 3 0 0 1-1.033-0.182z"/>
   <path d="m121.74 30.719a2 2 0 0 0 0.964 0.243 0.915 0.915 0 0 0 0.581-0.187 0.6 0.6 0 0 0 0.241-0.495 0.649 0.649 0 0 0-0.27-0.536 3.222 3.222 0 0 0-0.617-0.337c-0.111-0.054-0.218-0.112-0.319-0.173a2.683 2.683 0 0 1-0.291-0.2 1.074 1.074 0 0 1-0.206-0.279 0.759 0.759 0 0 1-0.077-0.353 0.9 0.9 0 0 1 0.375-0.81 1.482 1.482 0 0 1 0.829-0.235 3.928 3.928 0 0 1 0.415 0.029 2.638 2.638 0 0 1 0.5 0.142l-0.043 0.411a2.186 2.186 0 0 0-0.825-0.179 1.051 1.051 0 0 0-0.564 0.132 0.47 0.47 0 0 0-0.17 0.191 0.654 0.654 0 0 0-0.064 0.315 0.358 0.358 0 0 0 0.082 0.224 0.767 0.767 0 0 0 0.209 0.18c0.088 0.051 0.187 0.1 0.3 0.157s0.22 0.107 0.327 0.166a2.069 2.069 0 0 1 0.631 0.421 1.119 1.119 0 0 1 0.161 1.233 1.054 1.054 0 0 1-0.312 0.337 1.628 1.628 0 0 1-0.864 0.25 3 3 0 0 1-1.034-0.182z"/>
   <path d="m128.02 31.154a3.047 3.047 0 0 1-1.076 0.211 1.521 1.521 0 0 1-1.3-0.579 2.375 2.375 0 0 1-0.384-1.426 2.331 2.331 0 0 1 0.437-1.447 1.353 1.353 0 0 1 1.124-0.557 1.292 1.292 0 0 1 1.136 0.564 2.459 2.459 0 0 1 0.341 1.334v0.246h-2.54a1.627 1.627 0 0 0 0.313 1.028 1.059 1.059 0 0 0 0.909 0.438 1.8 1.8 0 0 0 0.569-0.1 1.833 1.833 0 0 0 0.473-0.188zm-0.223-2.061a1.921 1.921 0 0 0-0.212-0.921 0.81 0.81 0 0 0-0.737-0.413 0.964 0.964 0 0 0-0.793 0.42 1.516 1.516 0 0 0-0.3 0.914z"/>
   <path d="m129.87 28.345q0-0.439-0.03-0.9h0.444v0.681h0.013a2.319 2.319 0 0 1 0.153-0.271 1.037 1.037 0 0 1 0.216-0.245 1.018 1.018 0 0 1 0.34-0.191 1.6 1.6 0 0 1 0.486-0.066 1.14 1.14 0 0 1 0.98 0.421 1.778 1.778 0 0 1 0.283 1.048v2.448h-0.456v-2.326a1.679 1.679 0 0 0-0.195-0.87 0.793 0.793 0 0 0-0.686-0.315 0.937 0.937 0 0 0-0.86 0.448 1.449 1.449 0 0 0-0.182 0.443 2.322 2.322 0 0 0-0.056 0.506v2.117h-0.453z"/>
   <path d="m134.34 30.719a2 2 0 0 0 0.964 0.243 0.916 0.916 0 0 0 0.582-0.187 0.6 0.6 0 0 0 0.24-0.495 0.643 0.643 0 0 0-0.269-0.536 3.222 3.222 0 0 0-0.617-0.337c-0.112-0.054-0.217-0.112-0.32-0.173a2.771 2.771 0 0 1-0.29-0.2 1.1 1.1 0 0 1-0.206-0.279 0.759 0.759 0 0 1-0.078-0.353 0.905 0.905 0 0 1 0.376-0.81 1.48 1.48 0 0 1 0.829-0.235 3.928 3.928 0 0 1 0.415 0.029 2.629 2.629 0 0 1 0.5 0.142l-0.042 0.411a2.185 2.185 0 0 0-0.824-0.179 1.046 1.046 0 0 0-0.564 0.132 0.458 0.458 0 0 0-0.171 0.191 0.654 0.654 0 0 0-0.064 0.315 0.363 0.363 0 0 0 0.081 0.224 0.788 0.788 0 0 0 0.21 0.18c0.087 0.051 0.187 0.1 0.3 0.157s0.22 0.107 0.326 0.166a2.074 2.074 0 0 1 0.632 0.421 1.115 1.115 0 0 1 0.16 1.233 1.04 1.04 0 0 1-0.311 0.337 1.634 1.634 0 0 1-0.865 0.25 3 3 0 0 1-1.033-0.182z"/>
   <path d="m140.54 27.954a1.914 1.914 0 0 0-0.794-0.2 1.264 1.264 0 0 0-1.023 0.441 1.742 1.742 0 0 0-0.373 1.16 1.718 1.718 0 0 0 0.366 1.12 1.176 1.176 0 0 0 0.98 0.482 2.139 2.139 0 0 0 0.838-0.173l0.043 0.441a2.992 2.992 0 0 1-0.952 0.135 1.592 1.592 0 0 1-1.33-0.609 2.229 2.229 0 0 1-0.442-1.4 2.06 2.06 0 0 1 0.507-1.447 1.718 1.718 0 0 1 1.322-0.557 2.643 2.643 0 0 1 0.568 0.051 1.939 1.939 0 0 1 0.2 0.047 1.307 1.307 0 0 1 0.124 0.051z"/>
   <path d="m142.05 25.645h0.453v2.444h0.015a1.366 1.366 0 0 1 0.45-0.532 1.308 1.308 0 0 1 0.7-0.2 1.1 1.1 0 0 1 1.012 0.451 2.272 2.272 0 0 1 0.254 1.176v2.29h-0.453v-2.286a4.083 4.083 0 0 0-0.028-0.481 1.145 1.145 0 0 0-0.124-0.382 0.742 0.742 0 0 0-0.729-0.366 0.926 0.926 0 0 0-0.853 0.473 1.978 1.978 0 0 0-0.246 0.991v2.05h-0.453z"/>
   <path d="m148.94 30.661h-0.014a1.116 1.116 0 0 1-0.489 0.514 1.462 1.462 0 0 1-0.688 0.19 1.439 1.439 0 0 1-0.625-0.129 0.973 0.973 0 0 1-0.38-0.285 1.258 1.258 0 0 1 8e-3 -1.423 1.221 1.221 0 0 1 0.56-0.4 3.1 3.1 0 0 1 0.741-0.164q0.394-0.023 0.756-0.022h0.089v-0.2q0.022-0.99-0.846-0.989a1.964 1.964 0 0 0-1.09 0.317v-0.459a2.653 2.653 0 0 1 1.088-0.261q1.317-0.014 1.3 1.425v1.69a4.982 4.982 0 0 0 0.038 0.8h-0.45zm-0.042-1.316h-0.131q-0.3 0-0.6 0.015a2.108 2.108 0 0 0-0.569 0.129 0.882 0.882 0 0 0-0.409 0.275 0.747 0.747 0 0 0-0.167 0.507 0.586 0.586 0 0 0 0.234 0.525 0.86 0.86 0 0 0 0.538 0.166 1.063 1.063 0 0 0 0.632-0.166 0.949 0.949 0 0 0 0.33-0.374 1.284 1.284 0 0 0 0.121-0.46c0.012-0.156 0.018-0.285 0.018-0.385z"/>
   <path d="m151.46 27.851h-0.749v-0.4h0.749v-0.279q0-0.308 0.028-0.6a1.48 1.48 0 0 1 0.11-0.509 0.771 0.771 0 0 1 0.3-0.37 0.959 0.959 0 0 1 0.542-0.132c0.078 0 0.158 0 0.241 7e-3a0.5 0.5 0 0 1 0.188 0.066l-0.029 0.414a0.737 0.737 0 0 0-0.362-0.084 0.5 0.5 0 0 0-0.345 0.106 0.611 0.611 0 0 0-0.167 0.293 1.545 1.545 0 0 0-0.043 0.367c0 0.134-6e-3 0.264-6e-3 0.388v0.334h0.835v0.4h-0.835v3.422h-0.454z"/>
   <path d="m155.82 27.851h-0.843v2.48a0.8 0.8 0 0 0 0.117 0.444 0.4 0.4 0 0 0 0.377 0.187 0.9 0.9 0 0 0 0.423-0.092l0.028 0.389c-0.053 0.02-0.13 0.041-0.226 0.066a1.345 1.345 0 0 1-0.333 0.04 0.893 0.893 0 0 1-0.471-0.107 0.681 0.681 0 0 1-0.252-0.278 1.409 1.409 0 0 1-0.1-0.4c-0.013-0.152-0.021-0.315-0.021-0.491v-2.238h-0.723v-0.4h0.727v-0.924l0.454-0.165v1.089h0.843z"/>
   <path d="m33.456 36.966a1.744 1.744 0 0 0-0.547-0.187 4.941 4.941 0 0 0-0.586-0.037 1.924 1.924 0 0 0-1.52 0.639 2.73 2.73 0 0 0-7e-3 3.248 1.887 1.887 0 0 0 1.527 0.639 3.531 3.531 0 0 0 0.586-0.055 1.512 1.512 0 0 0 0.547-0.172l0.028 0.448a1.734 1.734 0 0 1-0.557 0.171 3.979 3.979 0 0 1-0.6 0.055 2.469 2.469 0 0 1-1.877-0.752 2.754 2.754 0 0 1-0.684-1.963 2.809 2.809 0 0 1 0.688-1.956 2.459 2.459 0 0 1 1.87-0.751q0.245 0 0.6 0.036a1.729 1.729 0 0 1 0.557 0.156z"/>
   <path d="m35.044 39.71a2.311 2.311 0 0 1 0.422-1.4 1.522 1.522 0 0 1 1.3-0.608 1.547 1.547 0 0 1 1.323 0.608 2.58 2.58 0 0 1 0 2.785 1.549 1.549 0 0 1-1.323 0.616 1.525 1.525 0 0 1-1.3-0.616 2.315 2.315 0 0 1-0.422-1.385zm0.5 0a1.877 1.877 0 0 0 0.32 1.128 1.035 1.035 0 0 0 0.911 0.474 1.072 1.072 0 0 0 0.926-0.474 1.944 1.944 0 0 0 0.306-1.128 2 2 0 0 0-0.306-1.142 1.083 1.083 0 0 0-0.926-0.459 1.046 1.046 0 0 0-0.911 0.459 1.934 1.934 0 0 0-0.322 1.142z"/>
   <path d="m40.088 38.7q0-0.44-0.028-0.9h0.44v0.681h0.015a2.172 2.172 0 0 1 0.152-0.271 1.06 1.06 0 0 1 0.216-0.245 1.008 1.008 0 0 1 0.34-0.191 1.625 1.625 0 0 1 0.485-0.066 1.143 1.143 0 0 1 0.981 0.421 1.786 1.786 0 0 1 0.284 1.048v2.448h-0.454v-2.331a1.679 1.679 0 0 0-0.2-0.87 0.792 0.792 0 0 0-0.686-0.315 0.937 0.937 0 0 0-0.86 0.448 1.4 1.4 0 0 0-0.173 0.443 2.269 2.269 0 0 0-0.057 0.506v2.117h-0.454z"/>
   <path d="m45.158 38.2h-0.748v-0.4h0.748v-0.28a5.922 5.922 0 0 1 0.029-0.6 1.458 1.458 0 0 1 0.109-0.509 0.767 0.767 0 0 1 0.3-0.37 0.955 0.955 0 0 1 0.541-0.132c0.078 0 0.158 0 0.241 8e-3a0.482 0.482 0 0 1 0.188 0.065l-0.028 0.414a0.743 0.743 0 0 0-0.363-0.084 0.494 0.494 0 0 0-0.344 0.106 0.6 0.6 0 0 0-0.167 0.293 1.5 1.5 0 0 0-0.043 0.367c-5e-3 0.134-7e-3 0.264-7e-3 0.388v0.334h0.835v0.4h-0.835v3.422h-0.454z"/>
   <path d="m50.414 41.5a3.043 3.043 0 0 1-1.076 0.211 1.522 1.522 0 0 1-1.3-0.579 2.359 2.359 0 0 1-0.383-1.426 2.324 2.324 0 0 1 0.436-1.447 1.356 1.356 0 0 1 1.124-0.557 1.289 1.289 0 0 1 1.136 0.565 2.444 2.444 0 0 1 0.34 1.333v0.242h-2.541a1.631 1.631 0 0 0 0.313 1.029 1.063 1.063 0 0 0 0.91 0.437 1.8 1.8 0 0 0 0.568-0.1 1.833 1.833 0 0 0 0.473-0.188zm-0.222-2.061a1.909 1.909 0 0 0-0.213-0.921 0.81 0.81 0 0 0-0.737-0.413 0.966 0.966 0 0 0-0.793 0.42 1.516 1.516 0 0 0-0.3 0.914zm-0.713-3.121h0.573l-0.913 1.082h-0.332z"/>
   <path d="m55.2 41.623h-0.453v-0.608h-0.017a1.2 1.2 0 0 1-1.156 0.7 1.321 1.321 0 0 1-1.139-0.579 2.464 2.464 0 0 1-0.387-1.426 2.5 2.5 0 0 1 0.359-1.439 1.3 1.3 0 0 1 1.167-0.565 1.279 1.279 0 0 1 0.483 0.084 1.082 1.082 0 0 1 0.343 0.21 1.023 1.023 0 0 1 0.326 0.441h0.015v-2.446h0.459zm-2.654-1.913a3.094 3.094 0 0 0 0.05 0.548 2.12 2.12 0 0 0 0.174 0.529 1.143 1.143 0 0 0 0.341 0.367 0.858 0.858 0 0 0 0.534 0.158 0.867 0.867 0 0 0 0.523-0.158 1.1 1.1 0 0 0 0.338-0.382 2.359 2.359 0 0 0 0.239-1.062 3.277 3.277 0 0 0-0.05-0.558 2.02 2.02 0 0 0-0.189-0.51 1.128 1.128 0 0 0-0.338-0.39 0.933 0.933 0 0 0-0.523-0.143 0.922 0.922 0 0 0-0.534 0.143 0.994 0.994 0 0 0-0.341 0.375 1.819 1.819 0 0 0-0.174 0.511 3.358 3.358 0 0 0-0.05 0.572z"/>
   <path d="m59.51 41.5a3.047 3.047 0 0 1-1.076 0.211 1.522 1.522 0 0 1-1.3-0.579 2.359 2.359 0 0 1-0.383-1.426 2.318 2.318 0 0 1 0.436-1.447 1.353 1.353 0 0 1 1.124-0.557 1.286 1.286 0 0 1 1.135 0.565 2.444 2.444 0 0 1 0.341 1.333v0.242h-2.541a1.631 1.631 0 0 0 0.313 1.029 1.06 1.06 0 0 0 0.909 0.437 1.809 1.809 0 0 0 0.569-0.1 1.848 1.848 0 0 0 0.473-0.188zm-0.222-2.061a1.91 1.91 0 0 0-0.214-0.921 0.807 0.807 0 0 0-0.736-0.413 0.963 0.963 0 0 0-0.793 0.42 1.516 1.516 0 0 0-0.3 0.914zm-0.713-3.121h0.572l-0.912 1.082h-0.335z"/>
   <path d="m61.364 38.651q0-0.531-0.029-0.853h0.454v0.732h0.011a1.658 1.658 0 0 1 0.369-0.574 0.8 0.8 0 0 1 0.582-0.25 1.526 1.526 0 0 1 0.32 0.044v0.491a1.179 1.179 0 0 0-0.334-0.044 0.767 0.767 0 0 0-0.444 0.136 1 1 0 0 0-0.283 0.366 1.953 1.953 0 0 0-0.146 0.489 3.088 3.088 0 0 0-0.05 0.542v1.893h-0.453z"/>
   <path d="m66.575 41.011h-0.014a1.124 1.124 0 0 1-0.49 0.514 1.463 1.463 0 0 1-0.689 0.19 1.441 1.441 0 0 1-0.624-0.129 0.966 0.966 0 0 1-0.38-0.285 1.26 1.26 0 0 1 7e-3 -1.423 1.229 1.229 0 0 1 0.561-0.4 3.087 3.087 0 0 1 0.742-0.164q0.394-0.023 0.756-0.022h0.088v-0.2q0.022-0.99-0.845-0.989a1.965 1.965 0 0 0-1.091 0.317v-0.459a2.657 2.657 0 0 1 1.089-0.261q1.315-0.014 1.3 1.425v1.69a5.223 5.223 0 0 0 0.038 0.8h-0.449zm-0.043-1.311h-0.132q-0.3 0-0.6 0.015a2.1 2.1 0 0 0-0.569 0.129 0.869 0.869 0 0 0-0.408 0.275 0.742 0.742 0 0 0-0.167 0.507 0.585 0.585 0 0 0 0.234 0.525 0.855 0.855 0 0 0 0.537 0.166 1.063 1.063 0 0 0 0.632-0.166 0.946 0.946 0 0 0 0.331-0.374 1.327 1.327 0 0 0 0.121-0.46c0.011-0.156 0.017-0.285 0.017-0.385z"/>
   <path d="m70.378 38.2h-0.842v2.48a0.8 0.8 0 0 0 0.117 0.444 0.4 0.4 0 0 0 0.377 0.187 0.9 0.9 0 0 0 0.423-0.092l0.028 0.389c-0.054 0.02-0.129 0.041-0.227 0.066a1.333 1.333 0 0 1-0.333 0.04 0.9 0.9 0 0 1-0.471-0.107 0.672 0.672 0 0 1-0.251-0.278 1.377 1.377 0 0 1-0.1-0.4c-0.014-0.152-0.021-0.315-0.021-0.491v-2.238h-0.727v-0.4h0.727v-0.923l0.454-0.166v1.089h0.842z"/>
   <path d="m72.323 36.775h-0.454v-0.629h0.454zm-0.454 1.025h0.454v3.825h-0.454z"/>
   <path d="m73.835 39.71a2.312 2.312 0 0 1 0.423-1.4 1.522 1.522 0 0 1 1.305-0.608 1.548 1.548 0 0 1 1.323 0.608 2.58 2.58 0 0 1 0 2.785 1.55 1.55 0 0 1-1.323 0.616 1.525 1.525 0 0 1-1.305-0.616 2.316 2.316 0 0 1-0.423-1.385zm0.5 0a1.877 1.877 0 0 0 0.321 1.128 1.033 1.033 0 0 0 0.911 0.474 1.071 1.071 0 0 0 0.925-0.474 1.944 1.944 0 0 0 0.308-1.128 2 2 0 0 0-0.306-1.142 1.083 1.083 0 0 0-0.925-0.459 1.043 1.043 0 0 0-0.911 0.459 1.934 1.934 0 0 0-0.325 1.142z"/>
   <path d="m78.88 38.7q0-0.44-0.029-0.9h0.443v0.681h0.014a2.308 2.308 0 0 1 0.152-0.271 1.042 1.042 0 0 1 0.217-0.245 1.008 1.008 0 0 1 0.34-0.191 1.616 1.616 0 0 1 0.485-0.066 1.143 1.143 0 0 1 0.981 0.421 1.785 1.785 0 0 1 0.283 1.048v2.448h-0.453v-2.331a1.669 1.669 0 0 0-0.2-0.87 0.79 0.79 0 0 0-0.685-0.315 0.938 0.938 0 0 0-0.861 0.448 1.422 1.422 0 0 0-0.177 0.443 2.329 2.329 0 0 0-0.057 0.506v2.117h-0.453z"/>
   <path d="m85.949 41.069a2 2 0 0 0 0.964 0.243 0.91 0.91 0 0 0 0.582-0.187 0.6 0.6 0 0 0 0.24-0.495 0.646 0.646 0 0 0-0.269-0.536 3.222 3.222 0 0 0-0.617-0.337c-0.112-0.054-0.218-0.111-0.32-0.173a2.771 2.771 0 0 1-0.29-0.2 1.074 1.074 0 0 1-0.206-0.279 0.759 0.759 0 0 1-0.078-0.353 0.9 0.9 0 0 1 0.376-0.81 1.48 1.48 0 0 1 0.829-0.235 3.946 3.946 0 0 1 0.415 0.029 2.629 2.629 0 0 1 0.5 0.142l-0.042 0.412a2.171 2.171 0 0 0-0.824-0.18 1.052 1.052 0 0 0-0.565 0.132 0.463 0.463 0 0 0-0.17 0.191 0.654 0.654 0 0 0-0.064 0.315 0.363 0.363 0 0 0 0.081 0.224 0.788 0.788 0 0 0 0.21 0.18c0.087 0.051 0.187 0.1 0.3 0.158s0.22 0.106 0.326 0.165a2.059 2.059 0 0 1 0.632 0.422 1.114 1.114 0 0 1 0.16 1.232 1.04 1.04 0 0 1-0.311 0.337 1.634 1.634 0 0 1-0.865 0.25 3 3 0 0 1-1.033-0.182z"/>
   <path d="m92.625 40.722c0 0.291 6e-3 0.591 0.032 0.9h-0.444v-0.681h-0.013a1.245 1.245 0 0 1-0.138 0.253 1.171 1.171 0 0 1-0.223 0.256 1.027 1.027 0 0 1-0.344 0.179 1.266 1.266 0 0 1-0.493 0.085 1.131 1.131 0 0 1-0.971-0.422 1.7 1.7 0 0 1-0.291-1.051v-2.441h0.454v2.326a1.52 1.52 0 0 0 0.209 0.858 0.733 0.733 0 0 0 0.672 0.33 0.976 0.976 0 0 0 0.53-0.136 0.89 0.89 0 0 0 0.334-0.33 1.383 1.383 0 0 0 0.181-0.451 2.227 2.227 0 0 0 0.053-0.48v-2.117h0.453z"/>
   <path d="m94.951 36.775h-0.451v-0.629h0.453zm-0.451 1.025h0.453v3.825h-0.453z"/>
   <path d="m96.465 41.069a2.006 2.006 0 0 0 0.964 0.243 0.91 0.91 0 0 0 0.582-0.187 0.59 0.59 0 0 0 0.24-0.495 0.641 0.641 0 0 0-0.269-0.536 3.222 3.222 0 0 0-0.617-0.337c-0.112-0.054-0.217-0.111-0.32-0.173a2.771 2.771 0 0 1-0.29-0.2 1.1 1.1 0 0 1-0.206-0.279 0.772 0.772 0 0 1-0.078-0.353 0.905 0.905 0 0 1 0.376-0.81 1.48 1.48 0 0 1 0.829-0.235 3.928 3.928 0 0 1 0.415 0.029 2.629 2.629 0 0 1 0.5 0.142l-0.042 0.412a2.167 2.167 0 0 0-0.824-0.18 1.046 1.046 0 0 0-0.564 0.132 0.458 0.458 0 0 0-0.171 0.191 0.654 0.654 0 0 0-0.064 0.315 0.363 0.363 0 0 0 0.081 0.224 0.788 0.788 0 0 0 0.21 0.18c0.087 0.051 0.187 0.1 0.3 0.158s0.22 0.106 0.326 0.165a2.047 2.047 0 0 1 0.632 0.422 1.109 1.109 0 0 1 0.16 1.232 1.04 1.04 0 0 1-0.311 0.337 1.633 1.633 0 0 1-0.864 0.25 3 3 0 0 1-1.034-0.182z"/>
   <path d="m99.971 41.069a2 2 0 0 0 0.964 0.243 0.906 0.906 0 0 0 0.581-0.187 0.6 0.6 0 0 0 0.241-0.495 0.649 0.649 0 0 0-0.269-0.536 3.222 3.222 0 0 0-0.617-0.337c-0.112-0.054-0.218-0.111-0.32-0.173a2.785 2.785 0 0 1-0.291-0.2 1.1 1.1 0 0 1-0.206-0.279 0.759 0.759 0 0 1-0.077-0.353 0.9 0.9 0 0 1 0.375-0.81 1.485 1.485 0 0 1 0.829-0.235 3.911 3.911 0 0 1 0.415 0.029 2.638 2.638 0 0 1 0.5 0.142l-0.043 0.412a2.163 2.163 0 0 0-0.824-0.18 1.049 1.049 0 0 0-0.564 0.132 0.463 0.463 0 0 0-0.17 0.191 0.654 0.654 0 0 0-0.065 0.315 0.364 0.364 0 0 0 0.082 0.224 0.782 0.782 0 0 0 0.209 0.18c0.088 0.051 0.188 0.1 0.3 0.158s0.221 0.106 0.327 0.165a2.071 2.071 0 0 1 0.632 0.422 1.119 1.119 0 0 1 0.16 1.232 1.051 1.051 0 0 1-0.311 0.337 1.634 1.634 0 0 1-0.865 0.25 3.007 3.007 0 0 1-1.034-0.182z"/>
   <path d="m106.24 41.5a3.048 3.048 0 0 1-1.077 0.211 1.519 1.519 0 0 1-1.3-0.579 2.366 2.366 0 0 1-0.384-1.426 2.331 2.331 0 0 1 0.436-1.447 1.356 1.356 0 0 1 1.124-0.557 1.288 1.288 0 0 1 1.136 0.565 2.444 2.444 0 0 1 0.341 1.333v0.242h-2.54a1.631 1.631 0 0 0 0.312 1.029 1.063 1.063 0 0 0 0.91 0.437 1.809 1.809 0 0 0 0.569-0.1 1.863 1.863 0 0 0 0.473-0.188zm-0.223-2.061a1.909 1.909 0 0 0-0.213-0.921 0.807 0.807 0 0 0-0.736-0.413 0.963 0.963 0 0 0-0.793 0.42 1.516 1.516 0 0 0-0.3 0.914z"/>
   <path d="m33.456 47.316a1.8 1.8 0 0 0-0.547-0.187 4.941 4.941 0 0 0-0.586-0.037 1.924 1.924 0 0 0-1.52 0.639 2.73 2.73 0 0 0-7e-3 3.248 1.887 1.887 0 0 0 1.527 0.639 3.531 3.531 0 0 0 0.586-0.055 1.512 1.512 0 0 0 0.547-0.172l0.028 0.448a1.709 1.709 0 0 1-0.557 0.171 3.979 3.979 0 0 1-0.6 0.055 2.469 2.469 0 0 1-1.877-0.752 2.753 2.753 0 0 1-0.681-1.959 2.812 2.812 0 0 1 0.688-1.957 2.459 2.459 0 0 1 1.87-0.751q0.245 0 0.6 0.036a1.729 1.729 0 0 1 0.557 0.156z"/>
   <path d="m35.044 50.061a2.307 2.307 0 0 1 0.422-1.4 1.52 1.52 0 0 1 1.3-0.609 1.545 1.545 0 0 1 1.323 0.609 2.579 2.579 0 0 1 0 2.784 1.549 1.549 0 0 1-1.323 0.616 1.525 1.525 0 0 1-1.3-0.616 2.312 2.312 0 0 1-0.422-1.384zm0.5 0a1.876 1.876 0 0 0 0.32 1.127 1.035 1.035 0 0 0 0.911 0.474 1.072 1.072 0 0 0 0.926-0.474 1.943 1.943 0 0 0 0.306-1.127 2.008 2.008 0 0 0-0.306-1.143 1.083 1.083 0 0 0-0.926-0.459 1.046 1.046 0 0 0-0.911 0.459 1.937 1.937 0 0 0-0.322 1.143z"/>
   <path d="m40.088 49.045q0-0.439-0.028-0.9h0.44v0.681h0.015a2.172 2.172 0 0 1 0.152-0.271 1.06 1.06 0 0 1 0.216-0.245 1.008 1.008 0 0 1 0.34-0.191 1.625 1.625 0 0 1 0.485-0.066 1.144 1.144 0 0 1 0.981 0.422 1.782 1.782 0 0 1 0.284 1.047v2.448h-0.454v-2.326a1.679 1.679 0 0 0-0.2-0.87 0.792 0.792 0 0 0-0.686-0.315 0.937 0.937 0 0 0-0.86 0.448 1.4 1.4 0 0 0-0.181 0.444 2.26 2.26 0 0 0-0.057 0.505v2.117h-0.454z"/>
   <path d="m45.158 48.551h-0.748v-0.4h0.748v-0.281a5.9 5.9 0 0 1 0.029-0.6 1.458 1.458 0 0 1 0.109-0.51 0.767 0.767 0 0 1 0.3-0.37 0.955 0.955 0 0 1 0.541-0.132c0.078 0 0.158 0 0.241 8e-3a0.465 0.465 0 0 1 0.188 0.066l-0.028 0.413a0.743 0.743 0 0 0-0.363-0.084 0.494 0.494 0 0 0-0.344 0.106 0.6 0.6 0 0 0-0.167 0.294 1.481 1.481 0 0 0-0.043 0.366c-5e-3 0.135-7e-3 0.264-7e-3 0.388v0.334h0.835v0.4h-0.835v3.422h-0.454z"/>
   <path d="m50.414 51.854a3.043 3.043 0 0 1-1.076 0.211 1.522 1.522 0 0 1-1.3-0.579 2.356 2.356 0 0 1-0.383-1.425 2.325 2.325 0 0 1 0.436-1.448 1.359 1.359 0 0 1 1.124-0.557 1.289 1.289 0 0 1 1.136 0.565 2.444 2.444 0 0 1 0.34 1.333v0.246h-2.541a1.631 1.631 0 0 0 0.313 1.029 1.063 1.063 0 0 0 0.91 0.437 1.8 1.8 0 0 0 0.568-0.1 1.833 1.833 0 0 0 0.473-0.188zm-0.222-2.061a1.909 1.909 0 0 0-0.213-0.921 0.81 0.81 0 0 0-0.737-0.413 0.966 0.966 0 0 0-0.793 0.42 1.516 1.516 0 0 0-0.3 0.914z"/>
   <path d="m55.2 51.973h-0.453v-0.608h-0.017a1.2 1.2 0 0 1-1.156 0.7 1.321 1.321 0 0 1-1.139-0.579 2.463 2.463 0 0 1-0.387-1.425 2.505 2.505 0 0 1 0.359-1.44 1.307 1.307 0 0 1 1.167-0.565 1.279 1.279 0 0 1 0.483 0.084 1.082 1.082 0 0 1 0.347 0.208 1.019 1.019 0 0 1 0.326 0.442h0.015v-2.445h0.455zm-2.652-1.912a3.092 3.092 0 0 0 0.05 0.547 2.12 2.12 0 0 0 0.174 0.529 1.143 1.143 0 0 0 0.341 0.367 0.858 0.858 0 0 0 0.534 0.158 0.867 0.867 0 0 0 0.523-0.158 1.1 1.1 0 0 0 0.338-0.382 2.358 2.358 0 0 0 0.239-1.061 3.279 3.279 0 0 0-0.05-0.559 2.02 2.02 0 0 0-0.189-0.51 1.116 1.116 0 0 0-0.338-0.389 0.925 0.925 0 0 0-0.523-0.144 0.915 0.915 0 0 0-0.534 0.144 0.984 0.984 0 0 0-0.341 0.374 1.819 1.819 0 0 0-0.174 0.511 3.361 3.361 0 0 0-0.052 0.573z"/>
   <path d="m59.51 51.854a3.047 3.047 0 0 1-1.076 0.211 1.522 1.522 0 0 1-1.3-0.579 2.356 2.356 0 0 1-0.383-1.425 2.319 2.319 0 0 1 0.436-1.448 1.356 1.356 0 0 1 1.124-0.557 1.286 1.286 0 0 1 1.135 0.565 2.444 2.444 0 0 1 0.341 1.333v0.246h-2.541a1.631 1.631 0 0 0 0.313 1.029 1.06 1.06 0 0 0 0.909 0.437 1.809 1.809 0 0 0 0.569-0.1 1.848 1.848 0 0 0 0.473-0.188zm-0.222-2.061a1.91 1.91 0 0 0-0.214-0.921 0.807 0.807 0 0 0-0.736-0.413 0.963 0.963 0 0 0-0.793 0.42 1.516 1.516 0 0 0-0.3 0.914z"/>
   <path d="m61.364 49q0-0.531-0.029-0.853h0.454v0.732h0.011a1.658 1.658 0 0 1 0.369-0.574 0.81 0.81 0 0 1 0.582-0.25 1.526 1.526 0 0 1 0.32 0.044v0.491a1.216 1.216 0 0 0-0.334-0.044 0.767 0.767 0 0 0-0.444 0.136 1.006 1.006 0 0 0-0.283 0.366 1.953 1.953 0 0 0-0.146 0.489 3.088 3.088 0 0 0-0.05 0.542v1.893h-0.453z"/>
   <path d="m66.575 51.361h-0.014a1.124 1.124 0 0 1-0.49 0.514 1.447 1.447 0 0 1-1.313 0.062 0.977 0.977 0 0 1-0.38-0.286 1.258 1.258 0 0 1 7e-3 -1.422 1.215 1.215 0 0 1 0.561-0.4 3.04 3.04 0 0 1 0.742-0.165q0.394-0.023 0.756-0.022h0.088v-0.2q0.022-0.988-0.845-0.989a1.965 1.965 0 0 0-1.091 0.317v-0.459a2.657 2.657 0 0 1 1.089-0.261q1.315-0.014 1.3 1.425v1.69a5.223 5.223 0 0 0 0.038 0.8h-0.449zm-0.043-1.316h-0.132q-0.3 0-0.6 0.015a2.138 2.138 0 0 0-0.569 0.129 0.877 0.877 0 0 0-0.408 0.275 0.742 0.742 0 0 0-0.167 0.507 0.588 0.588 0 0 0 0.234 0.526 0.861 0.861 0 0 0 0.537 0.165 1.07 1.07 0 0 0 0.632-0.165 0.956 0.956 0 0 0 0.331-0.375 1.328 1.328 0 0 0 0.121-0.459c0.011-0.157 0.017-0.286 0.017-0.386z"/>
   <path d="m68.44 51.578 2.23-3.027h-2.213v-0.4h2.743v0.4l-2.3 3.019h2.3v0.4h-2.76z"/>
   <path d="m73.154 47.125h-0.454v-0.625h0.453zm-0.454 1.023h0.453v3.825h-0.453z"/>
   <path d="m74.667 50.061a2.307 2.307 0 0 1 0.422-1.4 1.521 1.521 0 0 1 1.306-0.609 1.544 1.544 0 0 1 1.322 0.609 2.579 2.579 0 0 1 0 2.784 1.549 1.549 0 0 1-1.322 0.616 1.526 1.526 0 0 1-1.306-0.616 2.312 2.312 0 0 1-0.422-1.384zm0.5 0a1.876 1.876 0 0 0 0.32 1.127 1.035 1.035 0 0 0 0.911 0.474 1.072 1.072 0 0 0 0.926-0.474 1.943 1.943 0 0 0 0.306-1.127 2.008 2.008 0 0 0-0.306-1.143 1.083 1.083 0 0 0-0.926-0.459 1.046 1.046 0 0 0-0.911 0.459 1.937 1.937 0 0 0-0.322 1.143z"/>
   <path d="m79.712 49.045q0-0.439-0.029-0.9h0.443v0.681h0.014a2.308 2.308 0 0 1 0.152-0.271 1.042 1.042 0 0 1 0.217-0.245 1.008 1.008 0 0 1 0.34-0.191 1.616 1.616 0 0 1 0.485-0.066 1.144 1.144 0 0 1 0.981 0.422 1.782 1.782 0 0 1 0.283 1.047v2.448h-0.453v-2.326a1.669 1.669 0 0 0-0.2-0.87 0.79 0.79 0 0 0-0.685-0.315 0.938 0.938 0 0 0-0.861 0.448 1.418 1.418 0 0 0-0.181 0.444 2.319 2.319 0 0 0-0.056 0.505v2.117h-0.454z"/>
   <path d="m86.953 51.854a3.043 3.043 0 0 1-1.076 0.211 1.522 1.522 0 0 1-1.3-0.579 2.363 2.363 0 0 1-0.383-1.425 2.325 2.325 0 0 1 0.436-1.448 1.359 1.359 0 0 1 1.124-0.557 1.288 1.288 0 0 1 1.136 0.565 2.444 2.444 0 0 1 0.341 1.333v0.246h-2.54a1.631 1.631 0 0 0 0.309 1.025 1.063 1.063 0 0 0 0.91 0.437 1.8 1.8 0 0 0 0.568-0.1 1.833 1.833 0 0 0 0.473-0.188zm-0.222-2.061a1.909 1.909 0 0 0-0.213-0.921 0.809 0.809 0 0 0-0.737-0.413 0.966 0.966 0 0 0-0.793 0.42 1.516 1.516 0 0 0-0.3 0.914z"/>
   <path d="m91.312 51.31a1.889 1.889 0 0 0 1.123 0.308 1.253 1.253 0 0 0 0.813-0.264 1.01 1.01 0 0 0 0.327-0.811 0.8 0.8 0 0 0-0.363-0.645 2.374 2.374 0 0 0-0.372-0.256q-0.21-0.122-0.43-0.239c-0.144-0.085-0.285-0.175-0.419-0.271a2.249 2.249 0 0 1-0.38-0.3 1.074 1.074 0 0 1-0.362-0.817 1.239 1.239 0 0 1 0.471-1.009 1.824 1.824 0 0 1 1.133-0.359 4.211 4.211 0 0 1 0.465 0.029 3.241 3.241 0 0 1 0.532 0.142l-0.081 0.47a2.2 2.2 0 0 0-1.309-0.158 1.076 1.076 0 0 0-0.358 0.158 0.787 0.787 0 0 0-0.253 0.271 0.862 0.862 0 0 0-0.1 0.437 0.614 0.614 0 0 0 0.1 0.344 1.05 1.05 0 0 0 0.259 0.279 3.491 3.491 0 0 0 0.38 0.238c0.136 0.081 0.276 0.164 0.423 0.249a2.925 2.925 0 0 1 0.8 0.569 1.3 1.3 0 0 1 0.27 0.392 1.34 1.34 0 0 1 0.093 0.517 1.305 1.305 0 0 1-0.529 1.133 1.955 1.955 0 0 1-1.135 0.349 2.712 2.712 0 0 1-1.146-0.226z"/>
   <path d="m97.022 51.973h-0.535l-1.257-3.825h0.5l1.02 3.312h0.018l1.072-3.312h0.479z"/>
   <path d="m100.11 47.125h-0.454v-0.625h0.454zm-0.454 1.023h0.454v3.825h-0.454z"/>
   <path d="m101.56 51.578 2.229-3.027h-2.212v-0.4h2.745v0.4l-2.305 3.019h2.305v0.4h-2.762z"/>
   <path d="m105.48 51.578 2.229-3.027h-2.208v-0.4h2.745v0.4l-2.3 3.019h2.3v0.4h-2.762z"/>
   <path d="m112.22 51.854a3.043 3.043 0 0 1-1.076 0.211 1.522 1.522 0 0 1-1.3-0.579 2.37 2.37 0 0 1-0.384-1.425 2.332 2.332 0 0 1 0.437-1.448 1.356 1.356 0 0 1 1.124-0.557 1.289 1.289 0 0 1 1.136 0.565 2.453 2.453 0 0 1 0.341 1.333v0.246h-2.54a1.631 1.631 0 0 0 0.313 1.029 1.061 1.061 0 0 0 0.909 0.437 1.815 1.815 0 0 0 0.57-0.1 1.839 1.839 0 0 0 0.472-0.188zm-0.222-2.061a1.921 1.921 0 0 0-0.213-0.921 0.81 0.81 0 0 0-0.737-0.413 0.964 0.964 0 0 0-0.793 0.42 1.516 1.516 0 0 0-0.3 0.914z"/>
   <path d="m114.08 49q0-0.531-0.03-0.853h0.454v0.732h0.015a1.63 1.63 0 0 1 0.369-0.574 0.81 0.81 0 0 1 0.582-0.25 1.535 1.535 0 0 1 0.32 0.044v0.491a1.216 1.216 0 0 0-0.334-0.044 0.763 0.763 0 0 0-0.444 0.136 1 1 0 0 0-0.284 0.366 1.952 1.952 0 0 0-0.145 0.489 3 3 0 0 0-0.05 0.542v1.893h-0.453z"/>
   <path d="m119.29 51.361h-0.015a1.121 1.121 0 0 1-0.489 0.514 1.449 1.449 0 0 1-1.314 0.062 0.973 0.973 0 0 1-0.379-0.286 1.258 1.258 0 0 1 7e-3 -1.422 1.215 1.215 0 0 1 0.561-0.4 3.04 3.04 0 0 1 0.742-0.165q0.395-0.023 0.756-0.022h0.088v-0.2q0.021-0.988-0.846-0.989a1.97 1.97 0 0 0-1.091 0.317v-0.459a2.661 2.661 0 0 1 1.089-0.261q1.317-0.014 1.3 1.425v1.69a5.1 5.1 0 0 0 0.038 0.8h-0.449zm-0.043-1.316h-0.131c-0.2 0-0.4 0-0.6 0.015a2.139 2.139 0 0 0-0.568 0.129 0.877 0.877 0 0 0-0.408 0.275 0.742 0.742 0 0 0-0.167 0.507 0.588 0.588 0 0 0 0.234 0.526 0.858 0.858 0 0 0 0.536 0.165 1.071 1.071 0 0 0 0.633-0.165 0.964 0.964 0 0 0 0.331-0.375 1.325 1.325 0 0 0 0.12-0.459c0.012-0.157 0.018-0.286 0.018-0.386z"/>
   <path d="m33.456 57.666a1.8 1.8 0 0 0-0.547-0.188 5.391 5.391 0 0 0-0.586-0.036 1.924 1.924 0 0 0-1.52 0.639 2.732 2.732 0 0 0-3e-3 3.249 1.892 1.892 0 0 0 1.527 0.638 3.642 3.642 0 0 0 0.586-0.055 1.512 1.512 0 0 0 0.547-0.173l0.028 0.449a1.734 1.734 0 0 1-0.557 0.171 3.979 3.979 0 0 1-0.6 0.055 2.475 2.475 0 0 1-1.877-0.751 2.76 2.76 0 0 1-0.681-1.961 2.807 2.807 0 0 1 0.688-1.956 2.452 2.452 0 0 1 1.863-0.747 5.9 5.9 0 0 1 0.6 0.036 1.7 1.7 0 0 1 0.557 0.156z"/>
   <path d="m35.044 60.41a2.309 2.309 0 0 1 0.422-1.4 1.522 1.522 0 0 1 1.3-0.608 1.547 1.547 0 0 1 1.323 0.608 2.579 2.579 0 0 1 0 2.784 1.55 1.55 0 0 1-1.323 0.617 1.526 1.526 0 0 1-1.3-0.617 2.312 2.312 0 0 1-0.422-1.384zm0.5 0a1.877 1.877 0 0 0 0.32 1.128 1.032 1.032 0 0 0 0.911 0.473 1.069 1.069 0 0 0 0.926-0.473 1.944 1.944 0 0 0 0.306-1.128 2.006 2.006 0 0 0-0.306-1.142 1.084 1.084 0 0 0-0.926-0.46 1.046 1.046 0 0 0-0.911 0.46 1.936 1.936 0 0 0-0.322 1.142z"/>
   <path d="m40.088 59.4c0-0.293-9e-3 -0.593-0.028-0.9h0.44v0.681h0.015a2.1 2.1 0 0 1 0.152-0.271 1.06 1.06 0 0 1 0.216-0.245 1.008 1.008 0 0 1 0.34-0.191 1.593 1.593 0 0 1 0.485-0.066 1.141 1.141 0 0 1 0.981 0.422 1.778 1.778 0 0 1 0.284 1.047v2.448h-0.454v-2.331a1.667 1.667 0 0 0-0.2-0.869 0.793 0.793 0 0 0-0.686-0.317 0.939 0.939 0 0 0-0.86 0.448 1.409 1.409 0 0 0-0.181 0.445 2.256 2.256 0 0 0-0.057 0.506v2.116h-0.454z"/>
   <path d="m45.158 58.9h-0.748v-0.4h0.748v-0.279a5.882 5.882 0 0 1 0.029-0.6 1.448 1.448 0 0 1 0.109-0.51 0.771 0.771 0 0 1 0.3-0.37 0.955 0.955 0 0 1 0.541-0.132c0.078 0 0.158 0 0.241 8e-3a0.466 0.466 0 0 1 0.188 0.065l-0.028 0.413a0.754 0.754 0 0 0-0.363-0.084 0.489 0.489 0 0 0-0.344 0.107 0.6 0.6 0 0 0-0.167 0.294 1.478 1.478 0 0 0-0.043 0.365c-5e-3 0.135-7e-3 0.265-7e-3 0.389v0.334h0.835v0.4h-0.835v3.423h-0.454z"/>
   <path d="m50.414 62.205a3.087 3.087 0 0 1-1.076 0.21 1.525 1.525 0 0 1-1.3-0.58 2.356 2.356 0 0 1-0.383-1.425 2.327 2.327 0 0 1 0.436-1.448 1.36 1.36 0 0 1 1.124-0.556 1.291 1.291 0 0 1 1.136 0.564 2.453 2.453 0 0 1 0.34 1.334v0.241h-2.541a1.629 1.629 0 0 0 0.313 1.029 1.058 1.058 0 0 0 0.91 0.437 2.621 2.621 0 0 0 1.041-0.286zm-0.222-2.062a1.907 1.907 0 0 0-0.213-0.921 0.812 0.812 0 0 0-0.737-0.414 0.964 0.964 0 0 0-0.793 0.421 1.512 1.512 0 0 0-0.3 0.914z"/>
   <path d="m55.2 62.323h-0.453v-0.609h-0.017a1.2 1.2 0 0 1-1.156 0.7 1.324 1.324 0 0 1-1.139-0.58 2.463 2.463 0 0 1-0.387-1.425 2.505 2.505 0 0 1 0.359-1.44 1.306 1.306 0 0 1 1.167-0.564 1.279 1.279 0 0 1 0.483 0.084 1.065 1.065 0 0 1 0.347 0.208 1.023 1.023 0 0 1 0.326 0.441h0.015v-2.438h0.455zm-2.654-1.913a3.1 3.1 0 0 0 0.05 0.548 2.112 2.112 0 0 0 0.174 0.528 1.132 1.132 0 0 0 0.341 0.367 0.858 0.858 0 0 0 0.534 0.158 0.867 0.867 0 0 0 0.523-0.158 1.106 1.106 0 0 0 0.338-0.381 2.362 2.362 0 0 0 0.239-1.062 3.268 3.268 0 0 0-0.05-0.558 2.027 2.027 0 0 0-0.189-0.511 1.112 1.112 0 0 0-0.338-0.388 0.926 0.926 0 0 0-0.523-0.145 0.915 0.915 0 0 0-0.534 0.145 1 1 0 0 0-0.341 0.374 1.823 1.823 0 0 0-0.174 0.51 3.369 3.369 0 0 0-0.05 0.573z"/>
   <path d="m59.51 62.205a3.091 3.091 0 0 1-1.076 0.21 1.525 1.525 0 0 1-1.3-0.58 2.356 2.356 0 0 1-0.383-1.425 2.321 2.321 0 0 1 0.436-1.448 1.358 1.358 0 0 1 1.124-0.556 1.288 1.288 0 0 1 1.135 0.564 2.453 2.453 0 0 1 0.341 1.334v0.241h-2.541a1.629 1.629 0 0 0 0.313 1.029 1.055 1.055 0 0 0 0.909 0.437 2.619 2.619 0 0 0 1.042-0.286zm-0.222-2.062a1.907 1.907 0 0 0-0.214-0.921 0.81 0.81 0 0 0-0.736-0.414 0.961 0.961 0 0 0-0.793 0.421 1.512 1.512 0 0 0-0.3 0.914z"/>
   <path d="m61.364 59.351c0-0.353-0.01-0.639-0.029-0.853h0.454v0.732h0.011a1.649 1.649 0 0 1 0.369-0.574 0.806 0.806 0 0 1 0.582-0.25 1.463 1.463 0 0 1 0.32 0.044v0.491a1.215 1.215 0 0 0-0.334-0.045 0.775 0.775 0 0 0-0.444 0.137 1.006 1.006 0 0 0-0.283 0.366 1.934 1.934 0 0 0-0.146 0.488 3.1 3.1 0 0 0-0.05 0.542v1.894h-0.453z"/>
   <path d="m66.575 61.71h-0.014a1.119 1.119 0 0 1-0.49 0.514 1.443 1.443 0 0 1-1.313 0.063 0.987 0.987 0 0 1-0.38-0.286 1.26 1.26 0 0 1 7e-3 -1.423 1.215 1.215 0 0 1 0.561-0.4 3.087 3.087 0 0 1 0.742-0.164q0.394-0.023 0.756-0.022h0.088v-0.2q0.022-0.989-0.845-0.989a1.974 1.974 0 0 0-1.091 0.318v-0.459a2.657 2.657 0 0 1 1.089-0.261q1.315-0.015 1.3 1.426v1.689a5.223 5.223 0 0 0 0.038 0.8h-0.449zm-0.043-1.31h-0.132q-0.3 0-0.6 0.015a2.063 2.063 0 0 0-0.569 0.129 0.869 0.869 0 0 0-0.408 0.275 0.74 0.74 0 0 0-0.167 0.507 0.585 0.585 0 0 0 0.234 0.525 0.855 0.855 0 0 0 0.537 0.165 1.063 1.063 0 0 0 0.632-0.165 0.946 0.946 0 0 0 0.331-0.374 1.327 1.327 0 0 0 0.121-0.46c0.011-0.157 0.017-0.285 0.017-0.386z"/>
   <path d="m68.44 61.927 2.23-3.027h-2.213v-0.4h2.743v0.4l-2.3 3.019h2.3v0.4h-2.76z"/>
   <path d="m73.154 57.475h-0.454v-0.63h0.453zm-0.454 1.025h0.453v3.825h-0.453z"/>
   <path d="m77.839 61.421a8.963 8.963 0 0 0 0.032 0.9h-0.444v-0.681h-0.014a1.29 1.29 0 0 1-0.138 0.252 1.175 1.175 0 0 1-0.223 0.257 1.036 1.036 0 0 1-0.344 0.179 1.285 1.285 0 0 1-0.493 0.085 1.132 1.132 0 0 1-0.971-0.421 1.7 1.7 0 0 1-0.291-1.053v-2.439h0.454v2.326a1.514 1.514 0 0 0 0.209 0.857 0.731 0.731 0 0 0 0.672 0.33 0.978 0.978 0 0 0 0.529-0.135 0.875 0.875 0 0 0 0.334-0.33 1.38 1.38 0 0 0 0.182-0.451 2.241 2.241 0 0 0 0.053-0.48v-2.117h0.453z"/>
   <path d="m79.712 59.4c0-0.293-0.01-0.593-0.029-0.9h0.443v0.681h0.014a2.23 2.23 0 0 1 0.152-0.271 1.042 1.042 0 0 1 0.217-0.245 1.008 1.008 0 0 1 0.34-0.191 1.584 1.584 0 0 1 0.485-0.066 1.141 1.141 0 0 1 0.981 0.422 1.778 1.778 0 0 1 0.283 1.047v2.448h-0.453v-2.331a1.657 1.657 0 0 0-0.2-0.869 0.791 0.791 0 0 0-0.685-0.317 0.94 0.94 0 0 0-0.861 0.448 1.433 1.433 0 0 0-0.181 0.445 2.315 2.315 0 0 0-0.056 0.506v2.116h-0.454z"/>
   <path d="m86.781 61.769a2.005 2.005 0 0 0 0.964 0.242 0.916 0.916 0 0 0 0.582-0.186 0.6 0.6 0 0 0 0.24-0.5 0.645 0.645 0 0 0-0.269-0.536 3.168 3.168 0 0 0-0.617-0.337c-0.112-0.054-0.218-0.112-0.32-0.172a2.941 2.941 0 0 1-0.29-0.2 1.091 1.091 0 0 1-0.206-0.279 0.762 0.762 0 0 1-0.078-0.353 0.908 0.908 0 0 1 0.376-0.811 1.479 1.479 0 0 1 0.829-0.234 3.946 3.946 0 0 1 0.415 0.029 2.429 2.429 0 0 1 0.5 0.143l-0.042 0.41a2.21 2.21 0 0 0-0.824-0.18 1.052 1.052 0 0 0-0.565 0.133 0.46 0.46 0 0 0-0.17 0.19 0.661 0.661 0 0 0-0.064 0.316 0.367 0.367 0 0 0 0.081 0.224 0.806 0.806 0 0 0 0.21 0.18c0.087 0.051 0.187 0.1 0.3 0.157s0.22 0.107 0.326 0.165a2.1 2.1 0 0 1 0.632 0.422 1.115 1.115 0 0 1 0.16 1.233 1.064 1.064 0 0 1-0.311 0.338 1.633 1.633 0 0 1-0.865 0.249 3 3 0 0 1-1.033-0.182z"/>
   <path d="m91.854 62.323h-0.536l-1.256-3.823h0.5l1.02 3.312h0.018l1.075-3.312h0.478z"/>
   <path d="m94.94 57.475h-0.453v-0.63h0.453zm-0.453 1.025h0.453v3.825h-0.453z"/>
   <path d="m96.394 61.927 2.23-3.027h-2.213v-0.4h2.745v0.4l-2.305 3.019h2.305v0.4h-2.762z"/>
   <path d="m100.66 59.351c0-0.353-0.01-0.639-0.03-0.853h0.455v0.732h0.014a1.621 1.621 0 0 1 0.369-0.574 0.806 0.806 0 0 1 0.582-0.25 1.463 1.463 0 0 1 0.32 0.044v0.491a1.215 1.215 0 0 0-0.334-0.045 0.773 0.773 0 0 0-0.444 0.137 1 1 0 0 0-0.284 0.366 1.932 1.932 0 0 0-0.145 0.488 3.1 3.1 0 0 0-0.05 0.542v1.894h-0.453z"/>
   <path d="m105.87 61.71h-0.015a1.112 1.112 0 0 1-0.489 0.514 1.445 1.445 0 0 1-1.314 0.063 0.983 0.983 0 0 1-0.379-0.286 1.26 1.26 0 0 1 7e-3 -1.423 1.215 1.215 0 0 1 0.561-0.4 3.087 3.087 0 0 1 0.742-0.164q0.395-0.023 0.756-0.022h0.088v-0.2q0.021-0.989-0.846-0.989a1.979 1.979 0 0 0-1.091 0.318v-0.459a2.661 2.661 0 0 1 1.089-0.261q1.317-0.015 1.3 1.426v1.689a5.1 5.1 0 0 0 0.038 0.8h-0.449zm-0.043-1.315h-0.131c-0.2 0-0.4 0-0.6 0.015a2.064 2.064 0 0 0-0.568 0.129 0.869 0.869 0 0 0-0.408 0.275 0.74 0.74 0 0 0-0.167 0.507 0.585 0.585 0 0 0 0.234 0.525 0.854 0.854 0 0 0 0.536 0.165 1.064 1.064 0 0 0 0.633-0.165 0.954 0.954 0 0 0 0.331-0.374 1.325 1.325 0 0 0 0.12-0.46c0.012-0.157 0.018-0.285 0.018-0.386z"/>
   <path d="m29.837 82.359a1.881 1.881 0 0 0 1.122 0.308 1.253 1.253 0 0 0 0.814-0.263 1.01 1.01 0 0 0 0.327-0.811 0.794 0.794 0 0 0-0.363-0.644 2.379 2.379 0 0 0-0.372-0.258c-0.14-0.08-0.283-0.16-0.43-0.238s-0.285-0.176-0.419-0.272a2.153 2.153 0 0 1-0.38-0.3 1.075 1.075 0 0 1-0.363-0.816 1.243 1.243 0 0 1 0.472-1.009 1.817 1.817 0 0 1 1.132-0.359 4.445 4.445 0 0 1 0.466 0.028 3.271 3.271 0 0 1 0.532 0.143l-0.082 0.469a2.207 2.207 0 0 0-1.308-0.157 1.108 1.108 0 0 0-0.359 0.157 0.8 0.8 0 0 0-0.252 0.272 0.86 0.86 0 0 0-0.1 0.436 0.615 0.615 0 0 0 0.1 0.345 1.031 1.031 0 0 0 0.259 0.278 3.346 3.346 0 0 0 0.38 0.239q0.2 0.121 0.423 0.25a2.88 2.88 0 0 1 0.8 0.568 1.266 1.266 0 0 1 0.27 0.393 1.327 1.327 0 0 1 0.093 0.516 1.305 1.305 0 0 1-0.529 1.133 1.957 1.957 0 0 1-1.135 0.349 2.724 2.724 0 0 1-1.146-0.226z"/>
   <path d="m38.074 83.023h-0.554l-1.008-3.313h-0.017l-1.008 3.313h-0.554l-1.192-3.823h0.5l0.972 3.312h0.014l1.037-3.312h0.553l0.98 3.312h0.014l1.025-3.312h0.458z"/>
   <path d="m41.14 78.175h-0.453v-0.629h0.453zm-0.453 1.025h0.453v3.825h-0.453z"/>
   <path d="m42.655 82.469a2 2 0 0 0 0.964 0.243 0.908 0.908 0 0 0 0.581-0.187 0.593 0.593 0 0 0 0.241-0.5 0.644 0.644 0 0 0-0.27-0.536 3.163 3.163 0 0 0-0.617-0.337c-0.111-0.054-0.217-0.112-0.319-0.173a2.683 2.683 0 0 1-0.291-0.2 1.085 1.085 0 0 1-0.206-0.28 0.757 0.757 0 0 1-0.077-0.351 0.905 0.905 0 0 1 0.375-0.811 1.482 1.482 0 0 1 0.829-0.235 3.911 3.911 0 0 1 0.415 0.029 2.638 2.638 0 0 1 0.5 0.142l-0.043 0.412a2.145 2.145 0 0 0-0.824-0.18 1.037 1.037 0 0 0-0.564 0.132 0.459 0.459 0 0 0-0.171 0.191 0.654 0.654 0 0 0-0.064 0.315 0.358 0.358 0 0 0 0.082 0.224 0.746 0.746 0 0 0 0.209 0.179c0.088 0.052 0.187 0.105 0.3 0.158s0.22 0.107 0.327 0.166a2.068 2.068 0 0 1 0.632 0.421 1.121 1.121 0 0 1 0.16 1.233 1.054 1.054 0 0 1-0.312 0.337 1.628 1.628 0 0 1-0.864 0.25 3.007 3.007 0 0 1-1.034-0.182z"/>
   <path d="m46.16 82.469a2 2 0 0 0 0.964 0.243 0.91 0.91 0 0 0 0.582-0.187 0.6 0.6 0 0 0 0.24-0.5 0.646 0.646 0 0 0-0.269-0.536 3.222 3.222 0 0 0-0.617-0.337c-0.112-0.054-0.218-0.112-0.32-0.173a2.771 2.771 0 0 1-0.29-0.2 1.062 1.062 0 0 1-0.206-0.28 0.745 0.745 0 0 1-0.078-0.351 0.9 0.9 0 0 1 0.376-0.811 1.48 1.48 0 0 1 0.829-0.235 3.946 3.946 0 0 1 0.415 0.029 2.629 2.629 0 0 1 0.5 0.142l-0.042 0.412a2.154 2.154 0 0 0-0.825-0.18 1.042 1.042 0 0 0-0.564 0.132 0.457 0.457 0 0 0-0.17 0.191 0.654 0.654 0 0 0-0.064 0.315 0.357 0.357 0 0 0 0.081 0.224 0.751 0.751 0 0 0 0.21 0.179c0.087 0.052 0.187 0.105 0.3 0.158s0.221 0.107 0.327 0.166a2.056 2.056 0 0 1 0.632 0.421 1.115 1.115 0 0 1 0.16 1.233 1.04 1.04 0 0 1-0.311 0.337 1.634 1.634 0 0 1-0.865 0.25 3 3 0 0 1-1.033-0.182z"/>
   <path d="m56.148 78.367a1.712 1.712 0 0 0-0.547-0.188 4.928 4.928 0 0 0-0.586-0.037 1.921 1.921 0 0 0-1.519 0.639 2.728 2.728 0 0 0-8e-3 3.248 1.877 1.877 0 0 0 1.527 0.638 3.521 3.521 0 0 0 0.586-0.054 1.525 1.525 0 0 0 0.547-0.172l0.028 0.448a1.709 1.709 0 0 1-0.557 0.171 3.968 3.968 0 0 1-0.6 0.055 2.465 2.465 0 0 1-1.876-0.752 2.755 2.755 0 0 1-0.682-1.959 2.812 2.812 0 0 1 0.688-1.957 2.459 2.459 0 0 1 1.87-0.751q0.245 0 0.6 0.036a1.722 1.722 0 0 1 0.557 0.156z"/>
   <path d="m57.924 81.111a2.312 2.312 0 0 1 0.422-1.4 1.525 1.525 0 0 1 1.305-0.608 1.549 1.549 0 0 1 1.323 0.608 2.582 2.582 0 0 1 0 2.786 1.551 1.551 0 0 1-1.323 0.615 1.527 1.527 0 0 1-1.305-0.615 2.317 2.317 0 0 1-0.422-1.386zm0.5 0a1.876 1.876 0 0 0 0.32 1.127 1.037 1.037 0 0 0 0.911 0.474 1.074 1.074 0 0 0 0.926-0.474 1.943 1.943 0 0 0 0.306-1.127 2 2 0 0 0-0.306-1.143 1.081 1.081 0 0 0-0.926-0.459 1.043 1.043 0 0 0-0.911 0.459 1.933 1.933 0 0 0-0.322 1.143z"/>
   <path d="m62.968 80.1q0-0.439-0.029-0.9h0.443v0.68h0.018a2.483 2.483 0 0 1 0.153-0.27 1.078 1.078 0 0 1 0.556-0.437 1.627 1.627 0 0 1 0.485-0.065 1.141 1.141 0 0 1 0.981 0.421 1.787 1.787 0 0 1 0.283 1.049v2.447h-0.458v-2.331a1.679 1.679 0 0 0-0.195-0.87 0.791 0.791 0 0 0-0.686-0.315 0.935 0.935 0 0 0-0.86 0.448 1.408 1.408 0 0 0-0.181 0.443 2.269 2.269 0 0 0-0.057 0.506v2.117h-0.454z"/>
   <path d="m68.039 79.6h-0.749v-0.4h0.749v-0.279c0-0.2 9e-3 -0.406 0.028-0.6a1.457 1.457 0 0 1 0.11-0.509 0.765 0.765 0 0 1 0.3-0.37 0.959 0.959 0 0 1 0.542-0.132c0.078 0 0.158 0 0.241 7e-3a0.509 0.509 0 0 1 0.187 0.066l-0.028 0.414a0.742 0.742 0 0 0-0.362-0.084 0.5 0.5 0 0 0-0.345 0.106 0.6 0.6 0 0 0-0.167 0.293 1.5 1.5 0 0 0-0.043 0.367c0 0.135-7e-3 0.264-7e-3 0.389v0.332h0.835v0.4h-0.835v3.422h-0.453z"/>
   <path d="m73.294 82.9a3.047 3.047 0 0 1-1.076 0.211 1.519 1.519 0 0 1-1.3-0.579 2.358 2.358 0 0 1-0.383-1.425 2.32 2.32 0 0 1 0.436-1.447 1.352 1.352 0 0 1 1.124-0.558 1.293 1.293 0 0 1 1.136 0.564 2.449 2.449 0 0 1 0.338 1.334v0.243h-2.539a1.631 1.631 0 0 0 0.313 1.029 1.061 1.061 0 0 0 0.909 0.437 1.8 1.8 0 0 0 0.569-0.1 1.869 1.869 0 0 0 0.473-0.188zm-0.222-2.061a1.917 1.917 0 0 0-0.214-0.922 0.808 0.808 0 0 0-0.736-0.412 0.964 0.964 0 0 0-0.793 0.42 1.516 1.516 0 0 0-0.3 0.914z"/>
   <path d="m78.079 83.023h-0.454v-0.607h-0.014a1.2 1.2 0 0 1-1.157 0.7 1.32 1.32 0 0 1-1.139-0.579 2.47 2.47 0 0 1-0.386-1.425 2.5 2.5 0 0 1 0.358-1.441 1.3 1.3 0 0 1 1.167-0.564 1.271 1.271 0 0 1 0.483 0.084 1.1 1.1 0 0 1 0.348 0.208 1.029 1.029 0 0 1 0.326 0.441h0.014v-2.44h0.454zm-2.653-1.912a3.092 3.092 0 0 0 0.05 0.547 2.2 2.2 0 0 0 0.174 0.529 1.155 1.155 0 0 0 0.342 0.367 0.849 0.849 0 0 0 0.533 0.158 0.864 0.864 0 0 0 0.524-0.158 1.1 1.1 0 0 0 0.338-0.383 2.347 2.347 0 0 0 0.238-1.06 3.288 3.288 0 0 0-0.05-0.559 2.056 2.056 0 0 0-0.188-0.51 1.128 1.128 0 0 0-0.338-0.39 0.928 0.928 0 0 0-0.524-0.143 0.912 0.912 0 0 0-0.533 0.143 0.988 0.988 0 0 0-0.342 0.375 1.885 1.885 0 0 0-0.174 0.511 3.343 3.343 0 0 0-0.05 0.573z"/>
   <path d="m82.39 82.9a3.047 3.047 0 0 1-1.076 0.211 1.517 1.517 0 0 1-1.3-0.579 2.365 2.365 0 0 1-0.384-1.425 2.326 2.326 0 0 1 0.436-1.447 1.352 1.352 0 0 1 1.125-0.558 1.291 1.291 0 0 1 1.135 0.564 2.449 2.449 0 0 1 0.339 1.334v0.243h-2.539a1.637 1.637 0 0 0 0.312 1.029 1.063 1.063 0 0 0 0.91 0.437 1.809 1.809 0 0 0 0.569-0.1 1.9 1.9 0 0 0 0.473-0.188zm-0.223-2.061a1.916 1.916 0 0 0-0.213-0.922 0.808 0.808 0 0 0-0.736-0.412 0.963 0.963 0 0 0-0.793 0.42 1.516 1.516 0 0 0-0.3 0.914z"/>
   <path d="m84.244 80.051q0-0.531-0.029-0.853h0.454v0.732h0.014a1.672 1.672 0 0 1 0.369-0.575 0.807 0.807 0 0 1 0.582-0.249 1.463 1.463 0 0 1 0.32 0.044v0.49a1.217 1.217 0 0 0-0.334-0.043 0.762 0.762 0 0 0-0.444 0.135 1.019 1.019 0 0 0-0.283 0.367 1.917 1.917 0 0 0-0.146 0.488 3.117 3.117 0 0 0-0.05 0.543v1.893h-0.453z"/>
   <path d="m89.455 82.411h-0.014a1.124 1.124 0 0 1-0.49 0.514 1.462 1.462 0 0 1-0.688 0.19 1.442 1.442 0 0 1-0.625-0.129 0.953 0.953 0 0 1-0.379-0.285 1.254 1.254 0 0 1 7e-3 -1.422 1.224 1.224 0 0 1 0.561-0.4 3.089 3.089 0 0 1 0.741-0.165c0.263-0.013 0.515-0.021 0.756-0.021h0.089v-0.193q0.021-0.99-0.846-0.989a1.962 1.962 0 0 0-1.091 0.317v-0.459a2.657 2.657 0 0 1 1.089-0.261q1.315-0.013 1.3 1.425v1.687a5.1 5.1 0 0 0 0.039 0.8h-0.45zm-0.042-1.311h-0.132q-0.3 0-0.6 0.015a2.092 2.092 0 0 0-0.568 0.129 0.877 0.877 0 0 0-0.409 0.275 0.745 0.745 0 0 0-0.167 0.507 0.586 0.586 0 0 0 0.234 0.525 0.857 0.857 0 0 0 0.537 0.166 1.064 1.064 0 0 0 0.633-0.166 0.953 0.953 0 0 0 0.33-0.375 1.3 1.3 0 0 0 0.121-0.459c0.012-0.156 0.018-0.285 0.018-0.385z"/>
   <path d="m93.258 79.6h-0.842v2.48a0.8 0.8 0 0 0 0.117 0.444 0.4 0.4 0 0 0 0.377 0.187 0.915 0.915 0 0 0 0.423-0.091l0.028 0.388c-0.054 0.02-0.13 0.041-0.227 0.066a1.333 1.333 0 0 1-0.333 0.04 0.888 0.888 0 0 1-0.471-0.107 0.678 0.678 0 0 1-0.251-0.278 1.369 1.369 0 0 1-0.1-0.4q-0.021-0.228-0.021-0.492v-2.237h-0.727v-0.4h0.727v-0.923l0.454-0.166v1.089h0.842z"/>
   <path d="m95.2 78.175h-0.454v-0.629h0.454zm-0.451 1.025h0.451v3.825h-0.454z"/>
   <path d="m96.715 81.111a2.312 2.312 0 0 1 0.422-1.4 1.527 1.527 0 0 1 1.306-0.608 1.548 1.548 0 0 1 1.322 0.608 2.582 2.582 0 0 1 0 2.786 1.55 1.55 0 0 1-1.322 0.615 1.529 1.529 0 0 1-1.306-0.615 2.317 2.317 0 0 1-0.422-1.386zm0.5 0a1.876 1.876 0 0 0 0.321 1.127 1.035 1.035 0 0 0 0.911 0.474 1.074 1.074 0 0 0 0.925-0.474 1.943 1.943 0 0 0 0.306-1.127 2 2 0 0 0-0.306-1.143 1.08 1.08 0 0 0-0.925-0.459 1.041 1.041 0 0 0-0.911 0.459 1.933 1.933 0 0 0-0.323 1.143z"/>
   <path d="m101.76 80.1q0-0.439-0.029-0.9h0.443v0.68h0.014a2.648 2.648 0 0 1 0.152-0.27 1.086 1.086 0 0 1 0.557-0.437 1.627 1.627 0 0 1 0.485-0.065 1.142 1.142 0 0 1 0.981 0.421 1.787 1.787 0 0 1 0.283 1.049v2.447h-0.453v-2.331a1.689 1.689 0 0 0-0.195-0.87 0.792 0.792 0 0 0-0.686-0.315 0.935 0.935 0 0 0-0.86 0.448 1.434 1.434 0 0 0-0.182 0.443 2.329 2.329 0 0 0-0.057 0.506v2.117h-0.453z"/>
   <path d="m29.913 98.488h2.41v0.446h-1.913v1.873h1.824v0.446h-1.824v2.47h-0.5z"/>
   <path d="m36.326 103.6a3.06 3.06 0 0 1-1.076 0.21 1.524 1.524 0 0 1-1.3-0.579 2.373 2.373 0 0 1-0.383-1.426 2.322 2.322 0 0 1 0.433-1.447 1.361 1.361 0 0 1 1.124-0.557 1.288 1.288 0 0 1 1.136 0.565 2.448 2.448 0 0 1 0.341 1.334v0.241h-2.538a1.63 1.63 0 0 0 0.312 1.028 1.059 1.059 0 0 0 0.91 0.438 1.843 1.843 0 0 0 0.569-0.1 1.8 1.8 0 0 0 0.472-0.188zm-0.222-2.062a1.9 1.9 0 0 0-0.213-0.92 0.81 0.81 0 0 0-0.737-0.415 0.967 0.967 0 0 0-0.793 0.421 1.515 1.515 0 0 0-0.3 0.914z"/>
   <path d="m41.11 103.72h-0.453v-0.608h-0.014a1.2 1.2 0 0 1-1.157 0.7 1.325 1.325 0 0 1-1.139-0.579 2.466 2.466 0 0 1-0.387-1.426 2.5 2.5 0 0 1 0.359-1.439 1.307 1.307 0 0 1 1.167-0.565 1.275 1.275 0 0 1 0.483 0.084 1.082 1.082 0 0 1 0.347 0.208 1.032 1.032 0 0 1 0.327 0.442h0.014v-2.44h0.453zm-2.652-1.913a3.094 3.094 0 0 0 0.05 0.548 2.154 2.154 0 0 0 0.174 0.528 1.113 1.113 0 0 0 0.341 0.367 0.852 0.852 0 0 0 0.534 0.159 0.864 0.864 0 0 0 0.524-0.159 1.091 1.091 0 0 0 0.337-0.38 2.353 2.353 0 0 0 0.239-1.063 3.277 3.277 0 0 0-0.05-0.558 2.034 2.034 0 0 0-0.189-0.51 1.122 1.122 0 0 0-0.337-0.389 0.929 0.929 0 0 0-0.524-0.145 0.915 0.915 0 0 0-0.534 0.145 1 1 0 0 0-0.341 0.374 1.851 1.851 0 0 0-0.174 0.511 3.358 3.358 0 0 0-0.05 0.572z"/>
   <path d="m45.422 103.6a3.069 3.069 0 0 1-1.076 0.21 1.524 1.524 0 0 1-1.3-0.579 2.359 2.359 0 0 1-0.383-1.426 2.322 2.322 0 0 1 0.436-1.447 1.361 1.361 0 0 1 1.124-0.557 1.286 1.286 0 0 1 1.135 0.565 2.448 2.448 0 0 1 0.341 1.334v0.241h-2.541a1.625 1.625 0 0 0 0.313 1.028 1.057 1.057 0 0 0 0.909 0.438 1.833 1.833 0 0 0 0.569-0.1 1.812 1.812 0 0 0 0.473-0.188zm-0.222-2.062a1.9 1.9 0 0 0-0.214-0.92 0.809 0.809 0 0 0-0.736-0.415 0.965 0.965 0 0 0-0.793 0.421 1.516 1.516 0 0 0-0.3 0.914z"/>
   <path d="m47.276 100.75c0-0.353-0.01-0.638-0.029-0.853h0.453v0.732h0.014a1.658 1.658 0 0 1 0.369-0.574 0.808 0.808 0 0 1 0.583-0.25 1.525 1.525 0 0 1 0.319 0.044v0.491a1.215 1.215 0 0 0-0.334-0.045 0.775 0.775 0 0 0-0.444 0.137 1.006 1.006 0 0 0-0.283 0.366 1.953 1.953 0 0 0-0.146 0.489 3.088 3.088 0 0 0-0.05 0.542v1.893h-0.453z"/>
   <path d="m52.487 103.11h-0.014a1.128 1.128 0 0 1-0.49 0.514 1.447 1.447 0 0 1-1.313 0.062 0.974 0.974 0 0 1-0.379-0.285 1.259 1.259 0 0 1 6e-3 -1.424 1.213 1.213 0 0 1 0.561-0.4 3.05 3.05 0 0 1 0.742-0.164c0.263-0.016 0.515-0.023 0.756-0.023h0.088v-0.2q0.023-0.988-0.845-0.99a1.978 1.978 0 0 0-1.091 0.319v-0.459a2.659 2.659 0 0 1 1.089-0.262q1.315-0.015 1.3 1.426v1.689a5.094 5.094 0 0 0 0.039 0.8h-0.45zm-0.043-1.316h-0.131q-0.3 0-0.6 0.015a2.138 2.138 0 0 0-0.569 0.129 0.882 0.882 0 0 0-0.408 0.275 0.74 0.74 0 0 0-0.167 0.507 0.588 0.588 0 0 0 0.234 0.526 0.861 0.861 0 0 0 0.537 0.165 1.076 1.076 0 0 0 0.633-0.165 0.965 0.965 0 0 0 0.33-0.374 1.339 1.339 0 0 0 0.121-0.46c0.011-0.158 0.017-0.286 0.017-0.386z"/>
   <path d="m54.7 98.1h0.454v5.628h-0.454z"/>
   <path d="m59.627 98.488h1.255a2.472 2.472 0 0 1 1.955 0.724 2.843 2.843 0 0 1 0.581 1.884 2.407 2.407 0 0 1-0.822 2.019 3.341 3.341 0 0 1-2.082 0.608h-0.887zm0.5 4.789h0.415a2.037 2.037 0 0 0 2.381-2.209 2.138 2.138 0 0 0-0.6-1.676 2.26 2.26 0 0 0-1.464-0.458h-0.735z"/>
   <path d="m67.693 103.6a3.069 3.069 0 0 1-1.076 0.21 1.524 1.524 0 0 1-1.3-0.579 2.359 2.359 0 0 1-0.383-1.426 2.322 2.322 0 0 1 0.436-1.447 1.361 1.361 0 0 1 1.124-0.557 1.286 1.286 0 0 1 1.135 0.565 2.448 2.448 0 0 1 0.341 1.334v0.241h-2.541a1.625 1.625 0 0 0 0.313 1.028 1.057 1.057 0 0 0 0.909 0.438 1.833 1.833 0 0 0 0.569-0.1 1.812 1.812 0 0 0 0.473-0.188zm-0.222-2.062a1.9 1.9 0 0 0-0.214-0.92 0.809 0.809 0 0 0-0.736-0.415 0.965 0.965 0 0 0-0.793 0.421 1.516 1.516 0 0 0-0.3 0.914z"/>
   <path d="m69.5 99.9h0.454l-0.032 0.7h0.014l0.131-0.222a1.3 1.3 0 0 1 0.221-0.256 1.355 1.355 0 0 1 0.341-0.225 1.286 1.286 0 0 1 0.493-0.084 1.322 1.322 0 0 1 1.18 0.565 2.643 2.643 0 0 1 0.348 1.439 2.518 2.518 0 0 1-0.377 1.426 1.351 1.351 0 0 1-1.151 0.579 1.147 1.147 0 0 1-1.154-0.741h-0.014v2.219h-0.454zm2.652 1.912a4.586 4.586 0 0 0-0.035-0.572 1.6 1.6 0 0 0-0.182-0.511 0.862 0.862 0 0 0-0.337-0.374 0.968 0.968 0 0 0-0.545-0.145 0.877 0.877 0 0 0-0.513 0.145 1.112 1.112 0 0 0-0.341 0.389 1.718 1.718 0 0 0-0.181 0.51 2.536 2.536 0 0 0-0.064 0.558 2.247 2.247 0 0 0 0.245 1.063 1.082 1.082 0 0 0 0.341 0.38 0.817 0.817 0 0 0 0.513 0.159 0.9 0.9 0 0 0 0.545-0.159 0.943 0.943 0 0 0 0.337-0.367 1.843 1.843 0 0 0 0.182-0.528 4.223 4.223 0 0 0 0.038-0.55z"/>
   <path d="m76.433 103.11h-0.015a1.121 1.121 0 0 1-0.489 0.514 1.447 1.447 0 0 1-1.313 0.062 0.985 0.985 0 0 1-0.38-0.285 1.261 1.261 0 0 1 7e-3 -1.424 1.213 1.213 0 0 1 0.561-0.4 3.04 3.04 0 0 1 0.742-0.164c0.263-0.016 0.515-0.023 0.756-0.023h0.088v-0.2q0.022-0.988-0.846-0.99a1.975 1.975 0 0 0-1.09 0.319v-0.459a2.658 2.658 0 0 1 1.088-0.262q1.317-0.015 1.3 1.426v1.689a5.1 5.1 0 0 0 0.038 0.8h-0.449zm-0.043-1.311h-0.131q-0.3 0-0.6 0.015a2.138 2.138 0 0 0-0.569 0.129 0.877 0.877 0 0 0-0.408 0.275 0.74 0.74 0 0 0-0.167 0.507 0.588 0.588 0 0 0 0.234 0.526 0.859 0.859 0 0 0 0.537 0.165 1.07 1.07 0 0 0 0.632-0.165 0.96 0.96 0 0 0 0.331-0.374 1.339 1.339 0 0 0 0.121-0.46c0.011-0.158 0.017-0.286 0.017-0.386z"/>
   <path d="m78.643 100.75c0-0.353-0.01-0.638-0.029-0.853h0.454v0.732h0.014a1.63 1.63 0 0 1 0.369-0.574 0.8 0.8 0 0 1 0.582-0.25 1.526 1.526 0 0 1 0.32 0.044v0.491a1.215 1.215 0 0 0-0.334-0.045 0.77 0.77 0 0 0-0.444 0.137 1 1 0 0 0-0.283 0.366 1.913 1.913 0 0 0-0.146 0.489 3.088 3.088 0 0 0-0.05 0.542v1.893h-0.453z"/>
   <path d="m83.32 100.3h-0.843v2.481a0.8 0.8 0 0 0 0.117 0.444 0.4 0.4 0 0 0 0.377 0.187 0.9 0.9 0 0 0 0.423-0.092l0.029 0.389c-0.055 0.02-0.13 0.041-0.227 0.066a1.345 1.345 0 0 1-0.333 0.04 0.9 0.9 0 0 1-0.471-0.107 0.688 0.688 0 0 1-0.252-0.278 1.417 1.417 0 0 1-0.1-0.4c-0.014-0.152-0.021-0.315-0.021-0.49v-2.24h-0.719v-0.4h0.726v-0.924l0.454-0.164v1.088h0.843z"/>
   <path d="m89.358 103.72v-2.546a2.392 2.392 0 0 0-0.03-0.392 0.809 0.809 0 0 0-0.144-0.3 0.617 0.617 0 0 0-0.248-0.209 1.036 1.036 0 0 0-0.4-0.067 0.957 0.957 0 0 0-0.711 0.331 1.56 1.56 0 0 0-0.326 1.068v2.116h-0.449v-2.546a2.089 2.089 0 0 0-0.034-0.392 0.809 0.809 0 0 0-0.144-0.3 0.617 0.617 0 0 0-0.248-0.209 1.036 1.036 0 0 0-0.4-0.067 0.957 0.957 0 0 0-0.711 0.331 1.56 1.56 0 0 0-0.326 1.068v2.116h-0.454v-2.925c0-0.294-9e-3 -0.593-0.029-0.9h0.457v0.644l0.014 8e-3a1.7 1.7 0 0 1 0.143-0.234 0.851 0.851 0 0 1 0.208-0.238 1.258 1.258 0 0 1 0.336-0.2 1.494 1.494 0 0 1 0.5-0.074 1.647 1.647 0 0 1 0.292 0.029 0.913 0.913 0 0 1 0.3 0.122 0.8 0.8 0 0 1 0.262 0.24 1.1 1.1 0 0 1 0.157 0.416h0.015a1.326 1.326 0 0 1 0.456-0.572 1.288 1.288 0 0 1 0.763-0.235 1.158 1.158 0 0 1 0.894 0.36 1.342 1.342 0 0 1 0.307 0.923v2.634z"/>
   <path d="m94.13 103.6a3.069 3.069 0 0 1-1.076 0.21 1.524 1.524 0 0 1-1.3-0.579 2.359 2.359 0 0 1-0.383-1.426 2.322 2.322 0 0 1 0.436-1.447 1.361 1.361 0 0 1 1.124-0.557 1.286 1.286 0 0 1 1.135 0.565 2.439 2.439 0 0 1 0.341 1.334v0.241h-2.541a1.625 1.625 0 0 0 0.313 1.028 1.057 1.057 0 0 0 0.909 0.438 1.833 1.833 0 0 0 0.569-0.1 1.812 1.812 0 0 0 0.473-0.188zm-0.222-2.062a1.9 1.9 0 0 0-0.214-0.92 0.809 0.809 0 0 0-0.736-0.415 0.965 0.965 0 0 0-0.793 0.421 1.516 1.516 0 0 0-0.3 0.914z"/>
   <path d="m95.984 100.8q0-0.44-0.029-0.9h0.445v0.682h0.014a2.241 2.241 0 0 1 0.152-0.272 1.042 1.042 0 0 1 0.217-0.245 0.989 0.989 0 0 1 0.34-0.19 1.582 1.582 0 0 1 0.485-0.067 1.143 1.143 0 0 1 0.98 0.422 1.773 1.773 0 0 1 0.284 1.047v2.448h-0.453v-2.329a1.672 1.672 0 0 0-0.2-0.869 0.8 0.8 0 0 0-0.685-0.317 0.94 0.94 0 0 0-0.861 0.449 1.418 1.418 0 0 0-0.181 0.444 2.316 2.316 0 0 0-0.057 0.506v2.116h-0.453z"/>
   <path d="m102.34 100.3h-0.842v2.481a0.8 0.8 0 0 0 0.117 0.444 0.4 0.4 0 0 0 0.377 0.187 0.9 0.9 0 0 0 0.423-0.092l0.029 0.389c-0.055 0.02-0.13 0.041-0.228 0.066a1.327 1.327 0 0 1-0.333 0.04 0.891 0.891 0 0 1-0.47-0.107 0.674 0.674 0 0 1-0.252-0.278 1.417 1.417 0 0 1-0.1-0.4c-0.014-0.152-0.02-0.315-0.02-0.49v-2.24h-0.727v-0.4h0.727v-0.924l0.453-0.164v1.088h0.842z"/>
   <path d="m106.21 101.81a2.3 2.3 0 0 1 0.422-1.395 1.522 1.522 0 0 1 1.306-0.609 1.543 1.543 0 0 1 1.322 0.609 2.579 2.579 0 0 1 0 2.784 1.55 1.55 0 0 1-1.322 0.616 1.53 1.53 0 0 1-1.306-0.616 2.317 2.317 0 0 1-0.422-1.389zm0.5 0a1.877 1.877 0 0 0 0.321 1.128 1.029 1.029 0 0 0 0.911 0.474 1.067 1.067 0 0 0 0.925-0.474 1.944 1.944 0 0 0 0.306-1.128 2.006 2.006 0 0 0-0.306-1.142 1.086 1.086 0 0 0-0.925-0.46 1.046 1.046 0 0 0-0.911 0.46 1.936 1.936 0 0 0-0.323 1.142z"/>
   <path d="m111.57 100.3h-0.749v-0.4h0.749v-0.28c0-0.2 9e-3 -0.406 0.028-0.6a1.458 1.458 0 0 1 0.11-0.51 0.769 0.769 0 0 1 0.3-0.37 0.958 0.958 0 0 1 0.541-0.132c0.079 0 0.159 0 0.242 8e-3a0.455 0.455 0 0 1 0.187 0.066l-0.028 0.413a0.742 0.742 0 0 0-0.362-0.084 0.5 0.5 0 0 0-0.345 0.106 0.6 0.6 0 0 0-0.167 0.294 1.528 1.528 0 0 0-0.043 0.365c0 0.135-7e-3 0.265-7e-3 0.389v0.335h0.835v0.4h-0.835v3.423h-0.453z"/>
   <path d="m117.06 98.488h2.48v0.446h-1.982v1.873h1.882v0.446h-1.882v2.024h2.07v0.446h-2.568z"/>
   <path d="m123.76 100.4a1.936 1.936 0 0 0-0.8-0.2 1.27 1.27 0 0 0-1.022 0.442 1.748 1.748 0 0 0-0.372 1.16 1.723 1.723 0 0 0 0.365 1.121 1.172 1.172 0 0 0 0.98 0.481 2.139 2.139 0 0 0 0.839-0.172l0.042 0.441a3.014 3.014 0 0 1-0.951 0.134 1.6 1.6 0 0 1-1.33-0.608 2.228 2.228 0 0 1-0.443-1.4 2.071 2.071 0 0 1 0.507-1.447 1.727 1.727 0 0 1 1.323-0.557 2.705 2.705 0 0 1 0.567 0.051 2.057 2.057 0 0 1 0.2 0.047 1.147 1.147 0 0 1 0.125 0.051z"/>
   <path d="m124.98 101.81a2.3 2.3 0 0 1 0.422-1.395 1.521 1.521 0 0 1 1.306-0.609 1.544 1.544 0 0 1 1.322 0.609 2.579 2.579 0 0 1 0 2.784 1.551 1.551 0 0 1-1.322 0.616 1.528 1.528 0 0 1-1.306-0.616 2.317 2.317 0 0 1-0.422-1.389zm0.5 0a1.884 1.884 0 0 0 0.32 1.128 1.03 1.03 0 0 0 0.912 0.474 1.064 1.064 0 0 0 0.924-0.474 1.944 1.944 0 0 0 0.307-1.128 2.007 2.007 0 0 0-0.307-1.142 1.083 1.083 0 0 0-0.924-0.46 1.048 1.048 0 0 0-0.912 0.46 1.943 1.943 0 0 0-0.322 1.142z"/>
   <path d="m130.02 100.8q0-0.44-0.029-0.9h0.443v0.682h0.014a2.241 2.241 0 0 1 0.152-0.272 1.042 1.042 0 0 1 0.217-0.245 0.989 0.989 0 0 1 0.34-0.19 1.587 1.587 0 0 1 0.485-0.067 1.146 1.146 0 0 1 0.981 0.422 1.78 1.78 0 0 1 0.283 1.047v2.448h-0.453v-2.329a1.672 1.672 0 0 0-0.2-0.869 0.8 0.8 0 0 0-0.685-0.317 0.941 0.941 0 0 0-0.861 0.449 1.418 1.418 0 0 0-0.181 0.444 2.316 2.316 0 0 0-0.057 0.506v2.116h-0.453z"/>
   <path d="m134.49 101.81a2.3 2.3 0 0 1 0.423-1.395 1.517 1.517 0 0 1 1.3-0.609 1.545 1.545 0 0 1 1.323 0.609 2.573 2.573 0 0 1 0 2.784 1.552 1.552 0 0 1-1.323 0.616 1.524 1.524 0 0 1-1.3-0.616 2.311 2.311 0 0 1-0.423-1.389zm0.5 0a1.877 1.877 0 0 0 0.32 1.128 1.031 1.031 0 0 0 0.911 0.474 1.068 1.068 0 0 0 0.926-0.474 1.944 1.944 0 0 0 0.306-1.128 2.006 2.006 0 0 0-0.306-1.142 1.088 1.088 0 0 0-0.926-0.46 1.049 1.049 0 0 0-0.911 0.46 1.936 1.936 0 0 0-0.322 1.142z"/>
   <path d="m144.08 103.72v-2.546a2.4 2.4 0 0 0-0.029-0.392 0.809 0.809 0 0 0-0.144-0.3 0.624 0.624 0 0 0-0.248-0.209 1.045 1.045 0 0 0-0.4-0.067 0.956 0.956 0 0 0-0.71 0.331 1.555 1.555 0 0 0-0.326 1.068v2.116h-0.453v-2.546a2.176 2.176 0 0 0-0.034-0.392 0.809 0.809 0 0 0-0.144-0.3 0.617 0.617 0 0 0-0.248-0.209 1.036 1.036 0 0 0-0.4-0.067 0.957 0.957 0 0 0-0.711 0.331 1.56 1.56 0 0 0-0.326 1.068v2.116h-0.455v-2.925c0-0.294-8e-3 -0.593-0.028-0.9h0.456v0.644l0.015 8e-3a1.786 1.786 0 0 1 0.142-0.234 0.867 0.867 0 0 1 0.208-0.238 1.274 1.274 0 0 1 0.336-0.2 1.494 1.494 0 0 1 0.5-0.074 1.649 1.649 0 0 1 0.293 0.029 0.9 0.9 0 0 1 0.3 0.122 0.8 0.8 0 0 1 0.263 0.24 1.1 1.1 0 0 1 0.157 0.416h0.015a1.319 1.319 0 0 1 0.456-0.572 1.288 1.288 0 0 1 0.763-0.235 1.162 1.162 0 0 1 0.9 0.36 1.346 1.346 0 0 1 0.307 0.923v2.634z"/>
   <path d="m146.83 98.875h-0.454v-0.629h0.454zm-0.454 1.023h0.454v3.825h-0.454z"/>
   <path d="m151.04 100.4a1.939 1.939 0 0 0-0.795-0.2 1.269 1.269 0 0 0-1.023 0.442 1.947 1.947 0 0 0-8e-3 2.281 1.176 1.176 0 0 0 0.981 0.481 2.138 2.138 0 0 0 0.838-0.172l0.042 0.441a3.008 3.008 0 0 1-0.95 0.134 1.6 1.6 0 0 1-1.33-0.608 2.235 2.235 0 0 1-0.444-1.4 2.067 2.067 0 0 1 0.508-1.447 1.724 1.724 0 0 1 1.322-0.557 2.716 2.716 0 0 1 0.568 0.051c0.078 0.015 0.145 0.03 0.2 0.047a1.2 1.2 0 0 1 0.124 0.051z"/>
   <path d="m156.81 98.488h0.567l2.015 5.235h-0.522l-0.547-1.4h-2.561l-0.544 1.4h-0.486zm0.248 0.49-1.1 2.9h2.2z"/>
   <path d="m161.11 100.3h-0.748v-0.4h0.748v-0.28c0-0.2 0.01-0.406 0.028-0.6a1.481 1.481 0 0 1 0.11-0.51 0.781 0.781 0 0 1 0.3-0.37 0.959 0.959 0 0 1 0.542-0.132c0.078 0 0.159 0 0.242 8e-3a0.46 0.46 0 0 1 0.187 0.066l-0.028 0.413a0.743 0.743 0 0 0-0.363-0.084 0.5 0.5 0 0 0-0.344 0.106 0.6 0.6 0 0 0-0.167 0.294 1.478 1.478 0 0 0-0.043 0.365c0 0.135-7e-3 0.265-7e-3 0.389v0.335h0.835v0.4h-0.835v3.423h-0.454z"/>
   <path d="m164.06 100.3h-0.748v-0.4h0.748v-0.28c0-0.2 0.01-0.406 0.028-0.6a1.458 1.458 0 0 1 0.111-0.51 0.769 0.769 0 0 1 0.3-0.37 0.954 0.954 0 0 1 0.542-0.132c0.078 0 0.158 0 0.241 8e-3a0.46 0.46 0 0 1 0.187 0.066l-0.028 0.413a0.742 0.742 0 0 0-0.362-0.084 0.5 0.5 0 0 0-0.345 0.106 0.6 0.6 0 0 0-0.167 0.294 1.528 1.528 0 0 0-0.043 0.365c0 0.135-7e-3 0.265-7e-3 0.389v0.335h0.835v0.4h-0.835v3.423h-0.454z"/>
   <path d="m168.96 103.11h-0.013a1.128 1.128 0 0 1-0.49 0.514 1.447 1.447 0 0 1-1.313 0.062 0.993 0.993 0 0 1-0.38-0.285 1.2 1.2 0 0 1-0.216-0.666 1.178 1.178 0 0 1 0.224-0.758 1.205 1.205 0 0 1 0.56-0.4 3.05 3.05 0 0 1 0.742-0.164c0.262-0.016 0.514-0.023 0.756-0.023h0.088v-0.2q0.022-0.988-0.845-0.99a1.978 1.978 0 0 0-1.091 0.319v-0.459a2.659 2.659 0 0 1 1.089-0.262q1.317-0.015 1.3 1.426v1.689a4.869 4.869 0 0 0 0.038 0.8h-0.451zm-0.042-1.316h-0.13q-0.3 0-0.6 0.015a2.13 2.13 0 0 0-0.568 0.129 0.893 0.893 0 0 0-0.41 0.275 0.745 0.745 0 0 0-0.167 0.507 0.588 0.588 0 0 0 0.235 0.526 0.861 0.861 0 0 0 0.537 0.165 1.076 1.076 0 0 0 0.633-0.165 0.965 0.965 0 0 0 0.33-0.374 1.339 1.339 0 0 0 0.121-0.46c0.012-0.158 0.017-0.286 0.017-0.386z"/>
   <path d="m171.62 98.875h-0.454v-0.629h0.454zm-0.454 1.023h0.454v3.825h-0.454z"/>
   <path d="m173.42 100.75c0-0.353-8e-3 -0.638-0.028-0.853h0.454v0.732h0.015a1.63 1.63 0 0 1 0.369-0.574 0.8 0.8 0 0 1 0.582-0.25 1.535 1.535 0 0 1 0.319 0.044v0.491a1.21 1.21 0 0 0-0.334-0.045 0.767 0.767 0 0 0-0.443 0.137 1 1 0 0 0-0.284 0.366 1.953 1.953 0 0 0-0.146 0.489 3.088 3.088 0 0 0-0.05 0.542v1.893h-0.454z"/>
   <path d="m176.22 103.17a1.993 1.993 0 0 0 0.965 0.243 0.915 0.915 0 0 0 0.581-0.187 0.6 0.6 0 0 0 0.241-0.495 0.645 0.645 0 0 0-0.269-0.535 3.254 3.254 0 0 0-0.617-0.338c-0.112-0.054-0.218-0.111-0.32-0.172a2.793 2.793 0 0 1-0.291-0.2 1.109 1.109 0 0 1-0.206-0.278 0.766 0.766 0 0 1-0.078-0.354 0.906 0.906 0 0 1 0.376-0.81 1.472 1.472 0 0 1 0.829-0.235 3.911 3.911 0 0 1 0.415 0.029 2.57 2.57 0 0 1 0.5 0.143l-0.043 0.41a2.2 2.2 0 0 0-0.824-0.18 1.054 1.054 0 0 0-0.565 0.133 0.47 0.47 0 0 0-0.17 0.191 0.669 0.669 0 0 0-0.064 0.315 0.37 0.37 0 0 0 0.081 0.225 0.82 0.82 0 0 0 0.21 0.179c0.088 0.051 0.187 0.1 0.3 0.158s0.221 0.106 0.327 0.165a2.1 2.1 0 0 1 0.632 0.422 1.119 1.119 0 0 1 0.16 1.232 1.057 1.057 0 0 1-0.312 0.338 1.632 1.632 0 0 1-0.864 0.249 3.007 3.007 0 0 1-1.034-0.182z"/>
   <path d="m180.25 103.09h0.613l-0.573 1.633h-0.459z"/>
   <path d="m29.979 108.84h2.479v0.447h-1.982v1.873h1.882v0.446h-1.882v2.023h2.07v0.447h-2.567z"/>
   <path d="m37.2 114.07h-0.454v-0.609h-0.014a1.2 1.2 0 0 1-1.157 0.7 1.322 1.322 0 0 1-1.138-0.58 2.463 2.463 0 0 1-0.387-1.425 2.505 2.505 0 0 1 0.358-1.44 1.308 1.308 0 0 1 1.167-0.564 1.271 1.271 0 0 1 0.483 0.084 1.07 1.07 0 0 1 0.348 0.208 1.023 1.023 0 0 1 0.326 0.441h0.014v-2.444h0.454zm-2.653-1.913a3.1 3.1 0 0 0 0.05 0.548 2.155 2.155 0 0 0 0.175 0.528 1.111 1.111 0 0 0 0.341 0.367 0.858 0.858 0 0 0 0.534 0.158 0.867 0.867 0 0 0 0.523-0.158 1.106 1.106 0 0 0 0.338-0.381 2.361 2.361 0 0 0 0.238-1.062 3.17 3.17 0 0 0-0.05-0.558 2.063 2.063 0 0 0-0.188-0.511 1.112 1.112 0 0 0-0.338-0.388 0.926 0.926 0 0 0-0.523-0.145 0.915 0.915 0 0 0-0.534 0.145 0.982 0.982 0 0 0-0.341 0.374 1.856 1.856 0 0 0-0.175 0.51 3.369 3.369 0 0 0-0.055 0.573z"/>
   <path d="m41.909 113.17c0 0.291 6e-3 0.592 0.031 0.9h-0.44v-0.681h-0.014a1.29 1.29 0 0 1-0.138 0.252 1.175 1.175 0 0 1-0.223 0.257 1.036 1.036 0 0 1-0.344 0.179 1.285 1.285 0 0 1-0.493 0.085 1.135 1.135 0 0 1-0.972-0.421 1.708 1.708 0 0 1-0.29-1.053v-2.443h0.454v2.326a1.506 1.506 0 0 0 0.209 0.857 0.73 0.73 0 0 0 0.672 0.33 0.981 0.981 0 0 0 0.529-0.135 0.875 0.875 0 0 0 0.334-0.33 1.357 1.357 0 0 0 0.181-0.451 2.181 2.181 0 0 0 0.054-0.48v-2.117h0.453z"/>
   <path d="m46.191 110.75a1.938 1.938 0 0 0-0.8-0.195 1.268 1.268 0 0 0-1.023 0.442 1.747 1.747 0 0 0-0.368 1.16 1.723 1.723 0 0 0 0.366 1.121 1.174 1.174 0 0 0 0.98 0.48 2.117 2.117 0 0 0 0.838-0.172l0.043 0.442a3.047 3.047 0 0 1-0.951 0.134 1.593 1.593 0 0 1-1.33-0.609 2.225 2.225 0 0 1-0.443-1.4 2.065 2.065 0 0 1 0.507-1.448 1.726 1.726 0 0 1 1.323-0.556 2.64 2.64 0 0 1 0.567 0.051c0.078 0.014 0.145 0.03 0.2 0.046s0.095 0.038 0.124 0.051z"/>
   <path d="m49.824 113.46h-0.014a1.109 1.109 0 0 1-0.49 0.514 1.443 1.443 0 0 1-1.313 0.063 0.983 0.983 0 0 1-0.379-0.286 1.185 1.185 0 0 1-0.217-0.666 1.173 1.173 0 0 1 0.224-0.757 1.215 1.215 0 0 1 0.561-0.4 3.087 3.087 0 0 1 0.742-0.164q0.393-0.022 0.755-0.022h0.089v-0.2q0.021-0.988-0.846-0.989a1.979 1.979 0 0 0-1.091 0.318v-0.459a2.657 2.657 0 0 1 1.089-0.261q1.317-0.015 1.3 1.426v1.689a5.094 5.094 0 0 0 0.039 0.8h-0.45zm-0.042-1.315h-0.132q-0.3 0-0.6 0.015a2.056 2.056 0 0 0-0.568 0.129 0.877 0.877 0 0 0-0.409 0.275 0.745 0.745 0 0 0-0.167 0.507 0.583 0.583 0 0 0 0.235 0.525 0.852 0.852 0 0 0 0.536 0.165 1.064 1.064 0 0 0 0.633-0.165 0.954 0.954 0 0 0 0.331-0.374 1.325 1.325 0 0 0 0.12-0.46c0.012-0.157 0.018-0.285 0.018-0.386z"/>
   <path d="m53.627 110.65h-0.842v2.48a0.8 0.8 0 0 0 0.117 0.445 0.4 0.4 0 0 0 0.377 0.186 0.89 0.89 0 0 0 0.423-0.092l0.028 0.39c-0.054 0.02-0.129 0.041-0.227 0.066a1.333 1.333 0 0 1-0.333 0.04 0.907 0.907 0 0 1-0.471-0.107 0.678 0.678 0 0 1-0.251-0.278 1.383 1.383 0 0 1-0.1-0.4c-0.014-0.151-0.021-0.314-0.021-0.49v-2.24h-0.727v-0.4h0.727v-0.924l0.454-0.164v1.088h0.842z"/>
   <path d="m55.572 109.22h-0.453v-0.63h0.453zm-0.453 1.023h0.453v3.825h-0.453z"/>
   <path d="m57.085 112.16a2.309 2.309 0 0 1 0.422-1.4 1.523 1.523 0 0 1 1.306-0.608 1.546 1.546 0 0 1 1.322 0.608 2.579 2.579 0 0 1 0 2.784 1.549 1.549 0 0 1-1.322 0.617 1.526 1.526 0 0 1-1.306-0.617 2.312 2.312 0 0 1-0.422-1.384zm0.5 0a1.877 1.877 0 0 0 0.32 1.128 1.032 1.032 0 0 0 0.911 0.473 1.069 1.069 0 0 0 0.926-0.473 1.944 1.944 0 0 0 0.306-1.128 2.006 2.006 0 0 0-0.306-1.142 1.084 1.084 0 0 0-0.926-0.46 1.046 1.046 0 0 0-0.911 0.46 1.936 1.936 0 0 0-0.322 1.142z"/>
   <path d="m62.129 111.14c0-0.293-9e-3 -0.593-0.028-0.9h0.442v0.681h0.015a2.1 2.1 0 0 1 0.152-0.271 1.06 1.06 0 0 1 0.216-0.245 1.008 1.008 0 0 1 0.34-0.191 1.593 1.593 0 0 1 0.485-0.066 1.141 1.141 0 0 1 0.981 0.422 1.778 1.778 0 0 1 0.284 1.047v2.448h-0.454v-2.329a1.667 1.667 0 0 0-0.195-0.869 0.793 0.793 0 0 0-0.686-0.317 0.939 0.939 0 0 0-0.86 0.448 1.409 1.409 0 0 0-0.181 0.445 2.256 2.256 0 0 0-0.057 0.506v2.116h-0.454z"/>
   <path d="m71.685 113.46h-0.014a1.119 1.119 0 0 1-0.49 0.514 1.443 1.443 0 0 1-1.313 0.063 0.983 0.983 0 0 1-0.379-0.286 1.255 1.255 0 0 1 7e-3 -1.423 1.215 1.215 0 0 1 0.561-0.4 3.089 3.089 0 0 1 0.741-0.164q0.395-0.022 0.756-0.022h0.089v-0.2q0.021-0.988-0.846-0.989a1.979 1.979 0 0 0-1.091 0.318v-0.459a2.657 2.657 0 0 1 1.089-0.261q1.316-0.015 1.3 1.426v1.689a5.094 5.094 0 0 0 0.039 0.8h-0.45zm-0.042-1.315h-0.132q-0.3 0-0.6 0.015a2.056 2.056 0 0 0-0.568 0.129 0.877 0.877 0 0 0-0.409 0.275 0.745 0.745 0 0 0-0.167 0.507 0.585 0.585 0 0 0 0.233 0.529 0.857 0.857 0 0 0 0.537 0.165 1.064 1.064 0 0 0 0.633-0.165 0.944 0.944 0 0 0 0.33-0.374 1.306 1.306 0 0 0 0.121-0.46c0.012-0.157 0.018-0.285 0.018-0.386z"/>
   <path d="m73.9 111.14c0-0.293-0.01-0.593-0.029-0.9h0.443v0.681h0.014a2.24 2.24 0 0 1 0.153-0.271 1.07 1.07 0 0 1 0.556-0.436 1.589 1.589 0 0 1 0.485-0.066 1.141 1.141 0 0 1 0.981 0.422 1.778 1.778 0 0 1 0.283 1.047v2.448h-0.453v-2.329a1.657 1.657 0 0 0-0.2-0.869 0.791 0.791 0 0 0-0.685-0.317 0.94 0.94 0 0 0-0.861 0.448 1.433 1.433 0 0 0-0.181 0.445 2.315 2.315 0 0 0-0.056 0.506v2.116h-0.45z"/>
   <path d="m81.584 114.07h-0.454v-0.609h-0.014a1.2 1.2 0 0 1-1.157 0.7 1.322 1.322 0 0 1-1.138-0.58 2.463 2.463 0 0 1-0.387-1.425 2.505 2.505 0 0 1 0.358-1.44 1.308 1.308 0 0 1 1.167-0.564 1.271 1.271 0 0 1 0.483 0.084 1.059 1.059 0 0 1 0.348 0.208 1.023 1.023 0 0 1 0.326 0.441h0.014v-2.444h0.454zm-2.652-1.913a3.1 3.1 0 0 0 0.049 0.548 2.155 2.155 0 0 0 0.175 0.528 1.122 1.122 0 0 0 0.341 0.367 0.858 0.858 0 0 0 0.534 0.158 0.867 0.867 0 0 0 0.523-0.158 1.106 1.106 0 0 0 0.338-0.381 2.361 2.361 0 0 0 0.238-1.062 3.265 3.265 0 0 0-0.049-0.558 2.027 2.027 0 0 0-0.189-0.511 1.112 1.112 0 0 0-0.338-0.388 0.926 0.926 0 0 0-0.523-0.145 0.915 0.915 0 0 0-0.534 0.145 0.99 0.99 0 0 0-0.341 0.374 1.856 1.856 0 0 0-0.175 0.51 3.368 3.368 0 0 0-0.049 0.573z"/>
   <path d="m86.148 108.84h1.307q1.449-0.026 1.488 1.356a1.089 1.089 0 0 1-0.329 0.816 1.418 1.418 0 0 1-0.8 0.393v0.015a0.62 0.62 0 0 1 0.422 0.194 0.718 0.718 0 0 1 0.124 0.19c0.038 0.074 0.075 0.156 0.111 0.245l0.862 2.027h-0.551l-0.732-1.773a1.242 1.242 0 0 0-0.423-0.607 0.572 0.572 0 0 0-0.249-0.084c-0.092-6e-3 -0.2-8e-3 -0.32-8e-3h-0.412v2.47h-0.5zm0.5 2.32h0.53a1.688 1.688 0 0 0 0.863-0.21 0.813 0.813 0 0 0 0.406-0.752 1.089 1.089 0 0 0-0.1-0.511 0.623 0.623 0 0 0-0.278-0.272 1.138 1.138 0 0 0-0.409-0.11c-0.155-0.012-0.32-0.018-0.5-0.018h-0.516z"/>
   <path d="m93.324 113.96a3.091 3.091 0 0 1-1.076 0.21 1.524 1.524 0 0 1-1.3-0.58 2.356 2.356 0 0 1-0.383-1.425 2.321 2.321 0 0 1 0.435-1.448 1.358 1.358 0 0 1 1.124-0.556 1.288 1.288 0 0 1 1.135 0.564 2.453 2.453 0 0 1 0.341 1.334v0.241h-2.54a1.629 1.629 0 0 0 0.313 1.029 1.055 1.055 0 0 0 0.909 0.437 2.619 2.619 0 0 0 1.042-0.286zm-0.222-2.062a1.907 1.907 0 0 0-0.214-0.921 0.81 0.81 0 0 0-0.736-0.414 0.961 0.961 0 0 0-0.793 0.421 1.512 1.512 0 0 0-0.3 0.914z"/>
   <path d="m94.893 113.52a2 2 0 0 0 0.964 0.242 0.918 0.918 0 0 0 0.582-0.186 0.6 0.6 0 0 0 0.24-0.5 0.645 0.645 0 0 0-0.269-0.536 3.149 3.149 0 0 0-0.618-0.337c-0.111-0.054-0.216-0.112-0.319-0.172a2.941 2.941 0 0 1-0.29-0.2 1.115 1.115 0 0 1-0.206-0.279 0.762 0.762 0 0 1-0.078-0.353 0.908 0.908 0 0 1 0.376-0.811 1.479 1.479 0 0 1 0.829-0.234 3.946 3.946 0 0 1 0.415 0.029 2.429 2.429 0 0 1 0.5 0.143l-0.042 0.41a2.21 2.21 0 0 0-0.824-0.18 1.052 1.052 0 0 0-0.565 0.133 0.46 0.46 0 0 0-0.17 0.19 0.661 0.661 0 0 0-0.064 0.316 0.361 0.361 0 0 0 0.081 0.224 0.806 0.806 0 0 0 0.21 0.18c0.087 0.051 0.187 0.1 0.3 0.157s0.22 0.107 0.326 0.165a2.1 2.1 0 0 1 0.632 0.422 1.115 1.115 0 0 1 0.16 1.233 1.064 1.064 0 0 1-0.311 0.338 1.633 1.633 0 0 1-0.865 0.249 3 3 0 0 1-1.033-0.182z"/>
   <path d="m101.17 113.96a3.1 3.1 0 0 1-1.077 0.21 1.522 1.522 0 0 1-1.3-0.58 2.363 2.363 0 0 1-0.384-1.425 2.334 2.334 0 0 1 0.436-1.448 1.36 1.36 0 0 1 1.124-0.556 1.289 1.289 0 0 1 1.136 0.564 2.453 2.453 0 0 1 0.341 1.334v0.241h-2.543a1.629 1.629 0 0 0 0.312 1.029 1.057 1.057 0 0 0 0.91 0.437 1.835 1.835 0 0 0 0.569-0.1 1.863 1.863 0 0 0 0.473-0.188zm-0.223-2.062a1.907 1.907 0 0 0-0.213-0.921 0.811 0.811 0 0 0-0.736-0.414 0.961 0.961 0 0 0-0.793 0.421 1.505 1.505 0 0 0-0.3 0.914z"/>
   <path d="m105.15 113.46h-0.014a1.109 1.109 0 0 1-0.49 0.514 1.441 1.441 0 0 1-1.312 0.063 0.987 0.987 0 0 1-0.38-0.286 1.255 1.255 0 0 1 7e-3 -1.423 1.215 1.215 0 0 1 0.561-0.4 3.089 3.089 0 0 1 0.741-0.164q0.394-0.022 0.756-0.022h0.089v-0.2q0.022-0.988-0.846-0.989a1.977 1.977 0 0 0-1.091 0.318v-0.459a2.661 2.661 0 0 1 1.089-0.261q1.315-0.015 1.3 1.426v1.689a5.094 5.094 0 0 0 0.039 0.8h-0.45zm-0.042-1.315h-0.132c-0.2 0-0.4 5e-3 -0.6 0.015a2.048 2.048 0 0 0-0.568 0.129 0.872 0.872 0 0 0-0.409 0.275 0.745 0.745 0 0 0-0.167 0.507 0.585 0.585 0 0 0 0.234 0.525 0.857 0.857 0 0 0 0.537 0.165 1.064 1.064 0 0 0 0.633-0.165 0.936 0.936 0 0 0 0.33-0.374 1.284 1.284 0 0 0 0.121-0.46c0.012-0.157 0.018-0.285 0.018-0.386z"/>
   <path d="m107.36 111.1c0-0.353-0.01-0.639-0.029-0.853h0.454v0.732h0.014a1.61 1.61 0 0 1 0.37-0.574 0.8 0.8 0 0 1 0.582-0.25 1.462 1.462 0 0 1 0.319 0.044v0.491a1.215 1.215 0 0 0-0.334-0.045 0.767 0.767 0 0 0-0.443 0.137 1 1 0 0 0-0.285 0.366 1.932 1.932 0 0 0-0.145 0.488 3.1 3.1 0 0 0-0.05 0.542v1.894h-0.453z"/>
   <path d="m112.72 110.75a1.93 1.93 0 0 0-0.8-0.195 1.264 1.264 0 0 0-1.015 0.442 1.742 1.742 0 0 0-0.373 1.16 1.723 1.723 0 0 0 0.366 1.121 1.173 1.173 0 0 0 0.98 0.48 2.112 2.112 0 0 0 0.837-0.172l0.043 0.442a3.039 3.039 0 0 1-0.951 0.134 1.6 1.6 0 0 1-1.33-0.609 2.231 2.231 0 0 1-0.442-1.4 2.065 2.065 0 0 1 0.507-1.448 1.724 1.724 0 0 1 1.322-0.556 2.65 2.65 0 0 1 0.568 0.051c0.077 0.014 0.145 0.03 0.2 0.046s0.1 0.038 0.124 0.051z"/>
   <path d="m114.22 108.44h0.453v2.444h0.015a1.366 1.366 0 0 1 0.45-0.532 1.305 1.305 0 0 1 0.7-0.2 1.1 1.1 0 0 1 1.011 0.451 2.272 2.272 0 0 1 0.255 1.176v2.29h-0.453v-2.285a3.862 3.862 0 0 0-0.029-0.481 1.081 1.081 0 0 0-0.125-0.382 0.739 0.739 0 0 0-0.727-0.367 0.929 0.929 0 0 0-0.854 0.474 1.962 1.962 0 0 0-0.245 0.991v2.05h-0.453z"/>
   <path d="m121.7 108.84h2.478v0.447h-1.978v1.873h1.883v0.446h-1.883v2.023h2.07v0.447h-2.57z"/>
   <path d="m127.58 108.84h0.569l2.013 5.236h-0.522l-0.547-1.4h-2.56l-0.544 1.4h-0.487zm0.248 0.491-1.1 2.894h2.2z"/>
   <path d="m131.63 108.84h2.479v0.447h-1.982v1.873h1.883v0.446h-1.883v2.023h2.074v0.447h-2.568z"/>
   <path d="m135.98 108.84h1.307q1.447-0.026 1.488 1.356a1.089 1.089 0 0 1-0.329 0.816 1.418 1.418 0 0 1-0.8 0.393v0.015a0.622 0.622 0 0 1 0.422 0.194 0.718 0.718 0 0 1 0.124 0.19c0.038 0.074 0.075 0.156 0.11 0.245l0.862 2.027h-0.55l-0.737-1.771a1.23 1.23 0 0 0-0.423-0.607 0.563 0.563 0 0 0-0.249-0.084c-0.091-6e-3 -0.2-8e-3 -0.319-8e-3h-0.413v2.47h-0.5zm0.5 2.32h0.531a1.688 1.688 0 0 0 0.863-0.21 0.815 0.815 0 0 0 0.406-0.752 1.089 1.089 0 0 0-0.1-0.511 0.628 0.628 0 0 0-0.278-0.272 1.138 1.138 0 0 0-0.409-0.11c-0.156-0.012-0.321-0.018-0.5-0.018h-0.517z"/>
   <path d="m32.668 120.14a2.557 2.557 0 0 0-1.033-0.228 1.171 1.171 0 0 0-0.263 0.029 0.794 0.794 0 0 0-0.26 0.114 0.624 0.624 0 0 0-0.2 0.228 0.74 0.74 0 0 0-0.078 0.359 0.4 0.4 0 0 0 0.1 0.278 1.131 1.131 0 0 0 0.255 0.2 2.823 2.823 0 0 0 0.363 0.165c0.128 0.056 0.261 0.114 0.4 0.172a3.266 3.266 0 0 1 0.409 0.2 1.48 1.48 0 0 1 0.355 0.293 1.438 1.438 0 0 1 0.256 0.4 1.711 1.711 0 0 1 0.085 0.576 1.387 1.387 0 0 1-0.558 1.217 2.343 2.343 0 0 1-1.346 0.371 3 3 0 0 1-0.661-0.062c-0.184-0.035-0.4-0.082-0.642-0.143l0.095-0.939a2.28 2.28 0 0 0 1.148 0.323 1.2 1.2 0 0 0 0.6-0.165 0.559 0.559 0 0 0 0.3-0.51 0.594 0.594 0 0 0-0.085-0.323 0.85 0.85 0 0 0-0.256-0.224 6.245 6.245 0 0 0-0.763-0.349 2.508 2.508 0 0 1-0.4-0.209 1.907 1.907 0 0 1-0.367-0.272 1.427 1.427 0 0 1-0.255-0.4 1.41 1.41 0 0 1-0.1-0.55 1.445 1.445 0 0 1 0.558-1.248 2.123 2.123 0 0 1 1.215-0.353 3.849 3.849 0 0 1 1.215 0.186z"/>
   <path d="m34.458 121.29h-0.717v-0.733h0.717v-0.773l0.974-0.323v1.1h0.868v0.733h-0.868v1.805a0.841 0.841 0 0 0 0.092 0.434 0.379 0.379 0 0 0 0.367 0.2 0.806 0.806 0 0 0 0.444-0.107l0.028 0.792a2.424 2.424 0 0 1-0.72 0.092 1.1 1.1 0 0 1-1.185-1.252z"/>
   <path d="m37.335 120.76a3.194 3.194 0 0 1 1.3-0.294 1.411 1.411 0 0 1 1.615 1.627v0.495c0 0.376 5e-3 0.7 0.017 0.967 9e-3 0.285 0.023 0.574 0.042 0.865h-0.859a4.865 4.865 0 0 1-0.043-0.58h-7e-3a1.219 1.219 0 0 1-0.487 0.489 1.342 1.342 0 0 1-0.671 0.183 1.487 1.487 0 0 1-0.9-0.3 1 1 0 0 1-0.412-0.849 1.194 1.194 0 0 1 0.189-0.7 1.056 1.056 0 0 1 0.45-0.4 2.007 2.007 0 0 1 0.619-0.186 5.7 5.7 0 0 1 0.639-0.036h0.539a0.856 0.856 0 0 0-0.206-0.654 0.934 0.934 0 0 0-0.639-0.182 1.842 1.842 0 0 0-1.154 0.421zm0.525 2.545a0.39 0.39 0 0 0 0.182 0.353 0.723 0.723 0 0 0 0.437 0.122 0.791 0.791 0 0 0 0.681-0.347 1.421 1.421 0 0 0 0.206-0.8h-0.589a1 1 0 0 0-0.174 0.015 1.34 1.34 0 0 0-0.359 0.089 0.615 0.615 0 0 0-0.266 0.2 0.522 0.522 0 0 0-0.118 0.368z"/>
   <path d="m41.777 121.29h-0.717v-0.733h0.717v-0.773l0.974-0.323v1.1h0.868v0.733h-0.868v1.805a0.841 0.841 0 0 0 0.092 0.434 0.379 0.379 0 0 0 0.366 0.2 0.81 0.81 0 0 0 0.445-0.107l0.028 0.792a2.424 2.424 0 0 1-0.72 0.092 1.1 1.1 0 0 1-1.185-1.252z"/>
   <path d="m47.493 124.21a2.474 2.474 0 0 1-1.286 0.307 1.782 1.782 0 0 1-1.958-2 2.343 2.343 0 0 1 0.437-1.447 1.56 1.56 0 0 1 1.3-0.594 1.535 1.535 0 0 1 1.418 0.653 3.3 3.3 0 0 1 0.366 1.681h-2.591a0.988 0.988 0 0 0 0.327 0.714 1.061 1.061 0 0 0 0.743 0.266 1.83 1.83 0 0 0 0.668-0.122 2.984 2.984 0 0 0 0.576-0.273zm-0.653-2.093a1.155 1.155 0 0 0-0.2-0.641 0.705 0.705 0 0 0-0.594-0.271 0.817 0.817 0 0 0-0.623 0.256 1.116 1.116 0 0 0-0.245 0.656z"/>
   <path d="m53.789 120.14a2.565 2.565 0 0 0-1.034-0.228 1.178 1.178 0 0 0-0.263 0.029 0.794 0.794 0 0 0-0.26 0.114 0.624 0.624 0 0 0-0.2 0.228 0.74 0.74 0 0 0-0.078 0.359 0.4 0.4 0 0 0 0.1 0.278 1.137 1.137 0 0 0 0.256 0.2 2.748 2.748 0 0 0 0.362 0.165c0.128 0.056 0.262 0.114 0.4 0.172a3.2 3.2 0 0 1 0.409 0.2 1.48 1.48 0 0 1 0.355 0.293 1.438 1.438 0 0 1 0.256 0.4 1.711 1.711 0 0 1 0.085 0.576 1.389 1.389 0 0 1-0.557 1.217 2.348 2.348 0 0 1-1.347 0.371 3 3 0 0 1-0.661-0.062c-0.184-0.035-0.4-0.082-0.642-0.143l0.095-0.939a2.28 2.28 0 0 0 1.148 0.323 1.2 1.2 0 0 0 0.6-0.165 0.559 0.559 0 0 0 0.3-0.51 0.594 0.594 0 0 0-0.085-0.323 0.85 0.85 0 0 0-0.256-0.224 6.245 6.245 0 0 0-0.763-0.349 2.551 2.551 0 0 1-0.4-0.209 1.87 1.87 0 0 1-0.366-0.272 1.43 1.43 0 0 1-0.256-0.4 1.41 1.41 0 0 1-0.1-0.55 1.442 1.442 0 0 1 0.557-1.248 2.125 2.125 0 0 1 1.215-0.353 3.849 3.849 0 0 1 1.215 0.186z"/>
   <path d="m58.261 124.21a2.471 2.471 0 0 1-1.286 0.307 1.782 1.782 0 0 1-1.957-2 2.343 2.343 0 0 1 0.437-1.447 1.559 1.559 0 0 1 1.3-0.594 1.533 1.533 0 0 1 1.417 0.653 3.279 3.279 0 0 1 0.366 1.681h-2.59a0.988 0.988 0 0 0 0.327 0.714 1.061 1.061 0 0 0 0.743 0.266 1.834 1.834 0 0 0 0.668-0.122 3 3 0 0 0 0.575-0.273zm-0.653-2.093a1.147 1.147 0 0 0-0.2-0.641 0.705 0.705 0 0 0-0.594-0.271 0.815 0.815 0 0 0-0.622 0.256 1.109 1.109 0 0 0-0.245 0.656z"/>
   <path d="m61.972 121.39a1.091 1.091 0 0 0-0.277-0.106 1.708 1.708 0 0 0-0.383-0.037 0.89 0.89 0 0 0-0.714 0.331 1.355 1.355 0 0 0-0.277 0.9 1.49 1.49 0 0 0 0.256 0.893 0.87 0.87 0 0 0 0.756 0.371 1.335 1.335 0 0 0 0.422-0.071 1.614 1.614 0 0 0 0.327-0.113l0.043 0.832a1.934 1.934 0 0 1-0.437 0.088 3.155 3.155 0 0 1-0.537 0.041 1.67 1.67 0 0 1-1.375-0.587 2.186 2.186 0 0 1-0.473-1.454 2.154 2.154 0 0 1 0.473-1.43 1.653 1.653 0 0 1 1.339-0.575 3.012 3.012 0 0 1 0.946 0.128z"/>
   <path d="m63.011 120.56h0.865v0.879h0.014a1.29 1.29 0 0 1 0.319-0.623 0.915 0.915 0 0 1 0.706-0.345 1.529 1.529 0 0 1 0.3 0.031v1.012a0.945 0.945 0 0 0-0.436-0.081 0.6 0.6 0 0 0-0.451 0.165 0.979 0.979 0 0 0-0.238 0.413 2.076 2.076 0 0 0-0.088 0.51q-0.015 0.264-0.015 0.486v1.418h-0.973z"/>
   <path d="m68.887 124.21a2.471 2.471 0 0 1-1.286 0.307 1.782 1.782 0 0 1-1.957-2 2.343 2.343 0 0 1 0.437-1.447 1.559 1.559 0 0 1 1.3-0.594 1.533 1.533 0 0 1 1.417 0.653 3.279 3.279 0 0 1 0.366 1.681h-2.59a0.988 0.988 0 0 0 0.327 0.714 1.061 1.061 0 0 0 0.743 0.266 1.834 1.834 0 0 0 0.668-0.122 3 3 0 0 0 0.575-0.273zm-0.653-2.093a1.147 1.147 0 0 0-0.2-0.641 0.705 0.705 0 0 0-0.594-0.271 0.815 0.815 0 0 0-0.622 0.256 1.109 1.109 0 0 0-0.245 0.656z"/>
   <path d="m70.49 121.29h-0.718v-0.733h0.718v-0.773l0.974-0.323v1.1h0.868v0.733h-0.868v1.805a0.841 0.841 0 0 0 0.092 0.434 0.379 0.379 0 0 0 0.366 0.2 0.812 0.812 0 0 0 0.445-0.107l0.028 0.792a2.429 2.429 0 0 1-0.72 0.092 1.1 1.1 0 0 1-1.185-1.252z"/>
   <path d="m73.367 120.76a3.193 3.193 0 0 1 1.3-0.294 1.412 1.412 0 0 1 1.616 1.627v0.495c0 0.376 5e-3 0.7 0.016 0.967 0.01 0.285 0.024 0.574 0.043 0.865h-0.86a5.052 5.052 0 0 1-0.042-0.58h-0.015a1.217 1.217 0 0 1-0.486 0.489 1.342 1.342 0 0 1-0.671 0.183 1.485 1.485 0 0 1-0.9-0.3 1 1 0 0 1-0.412-0.849 1.2 1.2 0 0 1 0.188-0.7 1.064 1.064 0 0 1 0.451-0.4 1.993 1.993 0 0 1 0.618-0.186 5.716 5.716 0 0 1 0.639-0.036h0.54a0.856 0.856 0 0 0-0.206-0.654 0.934 0.934 0 0 0-0.639-0.182 1.839 1.839 0 0 0-1.154 0.421zm0.525 2.545a0.392 0.392 0 0 0 0.181 0.353 0.727 0.727 0 0 0 0.437 0.122 0.792 0.792 0 0 0 0.682-0.347 1.421 1.421 0 0 0 0.206-0.8h-0.589a1.008 1.008 0 0 0-0.175 0.015 1.333 1.333 0 0 0-0.358 0.089 0.624 0.624 0 0 0-0.267 0.2 0.526 0.526 0 0 0-0.117 0.368z"/>
   <path d="m77.512 120.56h0.865v0.879h0.015a1.279 1.279 0 0 1 0.318-0.623 0.915 0.915 0 0 1 0.706-0.345 1.547 1.547 0 0 1 0.3 0.031v1.012a0.95 0.95 0 0 0-0.437-0.081 0.6 0.6 0 0 0-0.45 0.165 0.959 0.959 0 0 0-0.238 0.413 2.076 2.076 0 0 0-0.089 0.51c-9e-3 0.176-0.014 0.338-0.014 0.486v1.418h-0.974z"/>
   <path d="m80.545 118.89h0.974v0.96h-0.974zm0 1.664h0.974v3.865h-0.974z"/>
   <path d="m82.883 120.76a3.194 3.194 0 0 1 1.3-0.294 1.411 1.411 0 0 1 1.617 1.631v0.495c0 0.376 0 0.7 0.016 0.967 0.01 0.285 0.024 0.574 0.043 0.865h-0.859a5.052 5.052 0 0 1-0.042-0.58h-0.015a1.211 1.211 0 0 1-0.486 0.489 1.342 1.342 0 0 1-0.671 0.183 1.485 1.485 0 0 1-0.9-0.3 1 1 0 0 1-0.412-0.849 1.194 1.194 0 0 1 0.189-0.7 1.056 1.056 0 0 1 0.45-0.4 2.01 2.01 0 0 1 0.618-0.186 5.734 5.734 0 0 1 0.64-0.036h0.539a0.856 0.856 0 0 0-0.206-0.654 0.934 0.934 0 0 0-0.639-0.182 1.842 1.842 0 0 0-1.154 0.421zm0.525 2.545a0.392 0.392 0 0 0 0.181 0.353 0.727 0.727 0 0 0 0.437 0.122 0.792 0.792 0 0 0 0.682-0.347 1.421 1.421 0 0 0 0.206-0.8h-0.589a1.017 1.017 0 0 0-0.175 0.015 1.333 1.333 0 0 0-0.358 0.089 0.624 0.624 0 0 0-0.267 0.2 0.526 0.526 0 0 0-0.117 0.368z"/>
   <path d="m87.325 121.29h-0.718v-0.733h0.718v-0.773l0.973-0.323v1.1h0.868v0.733h-0.866v1.805a0.831 0.831 0 0 0 0.093 0.434 0.379 0.379 0 0 0 0.366 0.2 0.806 0.806 0 0 0 0.444-0.107l0.028 0.792a2.42 2.42 0 0 1-0.72 0.092 1.1 1.1 0 0 1-1.184-1.252z"/>
   <path d="m92.591 121.29h-0.719v-0.733h0.719v-0.539a1.4 1.4 0 0 1 0.313-0.953 1.107 1.107 0 0 1 0.877-0.359 3.408 3.408 0 0 1 0.714 0.081l-0.078 0.828a0.89 0.89 0 0 0-0.16-0.095 0.74 0.74 0 0 0-0.262-0.037 0.354 0.354 0 0 0-0.334 0.18 0.861 0.861 0 0 0-0.1 0.412v0.482h0.852v0.733h-0.852v3.132h-0.974z"/>
   <path d="m95.026 122.52a2.031 2.031 0 0 1 0.565-1.509 2.08 2.08 0 0 1 2.794 0 2.061 2.061 0 0 1 0.561 1.509 2.02 2.02 0 0 1-0.511 1.411 2.076 2.076 0 0 1-2.893 0 2.01 2.01 0 0 1-0.516-1.411zm1.018-0.121a1.482 1.482 0 0 0 0.018 0.229c0.01 0.083 0.021 0.162 0.035 0.238a1.442 1.442 0 0 0 0.146 0.437 0.809 0.809 0 0 0 0.291 0.309 0.737 0.737 0 0 0 0.451 0.129 0.819 0.819 0 0 0 0.763-0.43 1.372 1.372 0 0 0 0.145-0.437 3.1 3.1 0 0 0 0.035-0.475 1.414 1.414 0 0 0-0.227-0.805 0.835 0.835 0 0 0-0.716-0.345 0.8 0.8 0 0 0-0.7 0.353 1.335 1.335 0 0 0-0.241 0.801z"/>
   <path d="m99.987 120.56h0.865v0.879h0.014a1.282 1.282 0 0 1 0.319-0.623 0.914 0.914 0 0 1 0.7-0.345 1.539 1.539 0 0 1 0.3 0.031v1.012a0.95 0.95 0 0 0-0.437-0.081 0.6 0.6 0 0 0-0.45 0.165 0.979 0.979 0 0 0-0.238 0.413 2.076 2.076 0 0 0-0.089 0.51c-9e-3 0.176-0.014 0.338-0.014 0.486v1.418h-0.973z"/>
   <path d="m105.28 119.19h3v0.82h-1.979v1.3h1.811v0.82h-1.811v1.473h2v0.82h-3.013z"/>
   <path d="m111.97 123.99h-0.014a1.425 1.425 0 0 1-1.15 0.525 1.342 1.342 0 0 1-1.214-0.623 2.614 2.614 0 0 1-0.355-1.411 2.579 2.579 0 0 1 0.355-1.411 1.345 1.345 0 0 1 1.214-0.6 1.33 1.33 0 0 1 1.117 0.539h0.018v-2.214h0.975v5.629h-0.946zm-1.715-1.509a1.9 1.9 0 0 0 0.177 0.827 0.876 0.876 0 0 0 0.252 0.3 0.587 0.587 0 0 0 0.393 0.129 0.641 0.641 0 0 0 0.415-0.129 0.84 0.84 0 0 0 0.258-0.3 1.377 1.377 0 0 0 0.145-0.408 2.671 2.671 0 0 0 0.035-0.419 1.8 1.8 0 0 0-0.194-0.823 0.953 0.953 0 0 0-0.27-0.3 0.714 0.714 0 0 0-0.4-0.11 0.669 0.669 0 0 0-0.638 0.412 1.481 1.481 0 0 0-0.124 0.4 2.081 2.081 0 0 0-0.049 0.421z"/>
   <path d="m117.61 124.42h-0.922v-0.523h-0.015a1.519 1.519 0 0 1-1.226 0.616 1.1 1.1 0 0 1-0.961-0.436 1.773 1.773 0 0 1-0.313-1.081v-2.44h0.974v2.068a1.053 1.053 0 0 0 0.015 0.172c0 0.059 0 0.121 6e-3 0.188a1.911 1.911 0 0 0 0.064 0.367 0.724 0.724 0 0 0 0.191 0.272 0.513 0.513 0 0 0 0.355 0.113 0.672 0.672 0 0 0 0.443-0.143 0.823 0.823 0 0 0 0.251-0.323 1.265 1.265 0 0 0 0.132-0.415 2.964 2.964 0 0 0 0.031-0.406v-1.893h0.975z"/>
   <path d="m121.3 121.39a1.077 1.077 0 0 0-0.277-0.106 1.7 1.7 0 0 0-0.383-0.037 0.89 0.89 0 0 0-0.714 0.331 1.355 1.355 0 0 0-0.276 0.9 1.49 1.49 0 0 0 0.255 0.893 0.87 0.87 0 0 0 0.757 0.371 1.339 1.339 0 0 0 0.422-0.071 1.6 1.6 0 0 0 0.326-0.113l0.043 0.832a1.923 1.923 0 0 1-0.437 0.088 3.138 3.138 0 0 1-0.537 0.041 1.671 1.671 0 0 1-1.375-0.587 2.192 2.192 0 0 1-0.473-1.454 2.159 2.159 0 0 1 0.473-1.43 1.655 1.655 0 0 1 1.34-0.575 3.006 3.006 0 0 1 0.945 0.128z"/>
   <path d="m122.48 120.76a3.2 3.2 0 0 1 1.3-0.294 1.411 1.411 0 0 1 1.622 1.631v0.495c0 0.376 6e-3 0.7 0.017 0.967 9e-3 0.285 0.024 0.574 0.043 0.865h-0.86a5.086 5.086 0 0 1-0.043-0.58h-0.014a1.219 1.219 0 0 1-0.487 0.489 1.339 1.339 0 0 1-0.671 0.183 1.482 1.482 0 0 1-0.895-0.3 1 1 0 0 1-0.412-0.849 1.194 1.194 0 0 1 0.188-0.7 1.056 1.056 0 0 1 0.45-0.4 2.007 2.007 0 0 1 0.619-0.186 5.7 5.7 0 0 1 0.639-0.036h0.539a0.853 0.853 0 0 0-0.206-0.654 0.932 0.932 0 0 0-0.638-0.182 1.844 1.844 0 0 0-1.155 0.421zm0.525 2.545a0.39 0.39 0 0 0 0.182 0.353 0.725 0.725 0 0 0 0.437 0.122 0.79 0.79 0 0 0 0.681-0.347 1.413 1.413 0 0 0 0.206-0.8h-0.589a1 1 0 0 0-0.174 0.015 1.35 1.35 0 0 0-0.359 0.089 0.615 0.615 0 0 0-0.266 0.2 0.522 0.522 0 0 0-0.121 0.368z"/>
   <path d="m126.92 121.29h-0.72v-0.733h0.717v-0.773l0.974-0.323v1.1h0.867v0.733h-0.867v1.805a0.831 0.831 0 0 0 0.092 0.434 0.379 0.379 0 0 0 0.366 0.2 0.8 0.8 0 0 0 0.444-0.107l0.029 0.792a2.429 2.429 0 0 1-0.72 0.092 1.1 1.1 0 0 1-1.185-1.252z"/>
   <path d="m129.66 118.89h0.973v0.96h-0.973zm0 1.664h0.973v3.865h-0.973z"/>
   <path d="m131.59 122.52a2.032 2.032 0 0 1 0.566-1.509 2.08 2.08 0 0 1 2.794 0 2.06 2.06 0 0 1 0.56 1.509 2.024 2.024 0 0 1-0.51 1.411 1.908 1.908 0 0 1-1.453 0.587 1.889 1.889 0 0 1-1.441-0.587 2.01 2.01 0 0 1-0.516-1.411zm1.019-0.121a1.615 1.615 0 0 0 0.017 0.229c0.01 0.083 0.022 0.162 0.036 0.238a1.469 1.469 0 0 0 0.145 0.437 0.809 0.809 0 0 0 0.291 0.309 0.739 0.739 0 0 0 0.451 0.129 0.819 0.819 0 0 0 0.763-0.43 1.4 1.4 0 0 0 0.146-0.437 3.228 3.228 0 0 0 0.035-0.475 1.407 1.407 0 0 0-0.228-0.805 0.833 0.833 0 0 0-0.716-0.345 0.806 0.806 0 0 0-0.7 0.353 1.334 1.334 0 0 0-0.24 0.801z"/>
   <path d="m136.53 120.56h0.922v0.527h0.013a1.449 1.449 0 0 1 1.231-0.616 1.148 1.148 0 0 1 0.972 0.429 1.834 1.834 0 0 1 0.3 1.085v2.44h-0.973v-2.066c0-0.124 0-0.252-0.011-0.385a1.02 1.02 0 0 0-0.071-0.351 0.538 0.538 0 0 0-0.181-0.28 0.757 0.757 0 0 0-0.79 0.034 0.974 0.974 0 0 0-0.262 0.322 1.508 1.508 0 0 0-0.132 0.411 2.326 2.326 0 0 0-0.042 0.422v1.893h-0.973z"/>
   <path d="m141.35 123.37h1.053l-0.659 1.876h-0.858z"/>
   <path d="m29.854 129.54h1.1c0.279 0 0.559 0 0.84 7e-3a2.594 2.594 0 0 1 0.77 0.151 1.1 1.1 0 0 1 0.568 0.418 1.511 1.511 0 0 1 0.209 0.842 1.22 1.22 0 0 1-0.277 0.8 1.162 1.162 0 0 1-0.771 0.41v0.016a0.494 0.494 0 0 1 0.338 0.19 1.439 1.439 0 0 1 0.2 0.351l0.814 2.049h-1.13l-0.611-1.635a0.935 0.935 0 0 0-0.241-0.421 0.739 0.739 0 0 0-0.465-0.121h-0.326v2.177h-1.018zm1.018 2.24h0.333a2.643 2.643 0 0 0 0.394-0.03 1 1 0 0 0 0.34-0.1 0.651 0.651 0 0 0 0.255-0.218 0.771 0.771 0 0 0 0.085-0.387 0.741 0.741 0 0 0-0.085-0.382 0.657 0.657 0 0 0-0.255-0.207 1.256 1.256 0 0 0-0.34-0.088c-0.133 0-0.264-8e-3 -0.394-8e-3h-0.333z"/>
   <path d="m37.552 134.56a2.474 2.474 0 0 1-1.286 0.307 1.782 1.782 0 0 1-1.958-2 2.341 2.341 0 0 1 0.437-1.447 1.555 1.555 0 0 1 1.3-0.594 1.535 1.535 0 0 1 1.418 0.652 3.3 3.3 0 0 1 0.366 1.682h-2.591a0.99 0.99 0 0 0 0.327 0.713 1.06 1.06 0 0 0 0.743 0.265 1.847 1.847 0 0 0 0.668-0.121 2.984 2.984 0 0 0 0.576-0.273zm-0.653-2.094a1.154 1.154 0 0 0-0.2-0.64 0.711 0.711 0 0 0-0.594-0.272 0.826 0.826 0 0 0-0.623 0.258 1.115 1.115 0 0 0-0.245 0.654z"/>
   <path d="m41.06 131.72a2.987 2.987 0 0 0-0.424-0.128 2.579 2.579 0 0 0-0.482-0.04 0.918 0.918 0 0 0-0.391 0.084 0.367 0.367 0 0 0-0.206 0.345c0 0.146 0.1 0.249 0.278 0.308 0.086 0.034 0.181 0.067 0.286 0.1s0.21 0.063 0.315 0.1a2.282 2.282 0 0 1 0.33 0.135 1.456 1.456 0 0 1 0.271 0.213 0.873 0.873 0 0 1 0.2 0.308 1.33 1.33 0 0 1 0.069 0.458 1.1 1.1 0 0 1-0.493 0.968 2.079 2.079 0 0 1-1.113 0.293 4.432 4.432 0 0 1-1.128-0.164l0.059-0.826a2.064 2.064 0 0 0 1 0.257 0.957 0.957 0 0 0 0.426-0.106 0.375 0.375 0 0 0 0.236-0.367 0.423 0.423 0 0 0-0.07-0.249 0.53 0.53 0 0 0-0.2-0.143 5.889 5.889 0 0 0-0.6-0.195 2.259 2.259 0 0 1-0.316-0.129 1.083 1.083 0 0 1-0.286-0.193 0.847 0.847 0 0 1-0.2-0.3 1.145 1.145 0 0 1 0.388-1.344 1.838 1.838 0 0 1 1.031-0.285 4.478 4.478 0 0 1 0.61 0.036c0.17 0.03 0.328 0.065 0.476 0.106z"/>
   <path d="m45.28 134.56a2.471 2.471 0 0 1-1.286 0.307 1.781 1.781 0 0 1-1.957-2 2.341 2.341 0 0 1 0.437-1.447 1.553 1.553 0 0 1 1.3-0.594 1.533 1.533 0 0 1 1.417 0.652 3.283 3.283 0 0 1 0.366 1.682h-2.59a0.99 0.99 0 0 0 0.327 0.713 1.06 1.06 0 0 0 0.743 0.265 1.854 1.854 0 0 0 0.668-0.121 3 3 0 0 0 0.575-0.273zm-0.653-2.094a1.146 1.146 0 0 0-0.2-0.64 0.711 0.711 0 0 0-0.594-0.272 0.823 0.823 0 0 0-0.622 0.258 1.108 1.108 0 0 0-0.245 0.654z"/>
   <path d="m46.728 131.11a3.189 3.189 0 0 1 1.3-0.293 1.41 1.41 0 0 1 1.616 1.627v0.494q0 0.566 0.016 0.967 0.015 0.429 0.043 0.865h-0.86a5.067 5.067 0 0 1-0.042-0.579h-0.015a1.218 1.218 0 0 1-0.486 0.487 1.336 1.336 0 0 1-0.672 0.184 1.484 1.484 0 0 1-0.9-0.3 1 1 0 0 1-0.412-0.85 1.2 1.2 0 0 1 0.188-0.7 1.058 1.058 0 0 1 0.451-0.4 2.02 2.02 0 0 1 0.618-0.186 5.725 5.725 0 0 1 0.639-0.037h0.54a0.853 0.853 0 0 0-0.206-0.652 0.929 0.929 0 0 0-0.639-0.184 1.858 1.858 0 0 0-1.154 0.422zm0.525 2.545a0.387 0.387 0 0 0 0.181 0.353 0.732 0.732 0 0 0 0.437 0.121 0.791 0.791 0 0 0 0.682-0.345 1.427 1.427 0 0 0 0.206-0.8h-0.59a1.114 1.114 0 0 0-0.169 0.013 1.332 1.332 0 0 0-0.358 0.088 0.627 0.627 0 0 0-0.267 0.206 0.524 0.524 0 0 0-0.122 0.364z"/>
   <path d="m50.873 130.91h0.865v0.879h0.014a1.286 1.286 0 0 1 0.319-0.623 0.912 0.912 0 0 1 0.705-0.344 1.608 1.608 0 0 1 0.3 0.029v1.014a0.932 0.932 0 0 0-0.436-0.081 0.594 0.594 0 0 0-0.451 0.165 0.957 0.957 0 0 0-0.238 0.413 2.076 2.076 0 0 0-0.089 0.509c-9e-3 0.175-0.014 0.338-0.014 0.487v1.417h-0.973z"/>
   <path d="m56.174 131.74a1.117 1.117 0 0 0-0.277-0.108 1.826 1.826 0 0 0-0.383-0.036 0.887 0.887 0 0 0-0.714 0.331 1.359 1.359 0 0 0-0.277 0.9 1.481 1.481 0 0 0 0.256 0.892 0.87 0.87 0 0 0 0.756 0.372 1.344 1.344 0 0 0 0.423-0.07 1.619 1.619 0 0 0 0.326-0.114l0.043 0.833a2.051 2.051 0 0 1-0.437 0.088 3.261 3.261 0 0 1-0.537 0.04 1.669 1.669 0 0 1-1.375-0.586 2.193 2.193 0 0 1-0.473-1.455 2.151 2.151 0 0 1 0.473-1.429 1.652 1.652 0 0 1 1.339-0.575 3.044 3.044 0 0 1 0.946 0.127z"/>
   <path d="m57.191 129.14h0.974v2.29h0.014a1.344 1.344 0 0 1 1.178-0.615 1.146 1.146 0 0 1 0.972 0.428 1.832 1.832 0 0 1 0.3 1.085v2.44h-0.974v-2.065c0-0.125 0-0.253-0.011-0.386a1.012 1.012 0 0 0-0.071-0.352 0.537 0.537 0 0 0-0.18-0.279 0.651 0.651 0 0 0-0.372-0.095 0.642 0.642 0 0 0-0.418 0.128 0.988 0.988 0 0 0-0.263 0.323 1.472 1.472 0 0 0-0.131 0.411 2.335 2.335 0 0 0-0.042 0.422v1.893h-0.974z"/>
   <path d="m64.247 131.11a3.193 3.193 0 0 1 1.3-0.293 1.41 1.41 0 0 1 1.615 1.627v0.494c0 0.377 0 0.7 0.017 0.967 9e-3 0.286 0.024 0.574 0.042 0.865h-0.859a4.879 4.879 0 0 1-0.043-0.579h-0.014a1.214 1.214 0 0 1-0.487 0.487 1.333 1.333 0 0 1-0.671 0.184 1.487 1.487 0 0 1-0.9-0.3 1 1 0 0 1-0.412-0.85 1.191 1.191 0 0 1 0.189-0.7 1.056 1.056 0 0 1 0.45-0.4 2.035 2.035 0 0 1 0.619-0.186 5.711 5.711 0 0 1 0.639-0.037h0.539a0.853 0.853 0 0 0-0.206-0.652 0.927 0.927 0 0 0-0.639-0.184 1.862 1.862 0 0 0-1.154 0.422zm0.525 2.545a0.388 0.388 0 0 0 0.182 0.353 0.73 0.73 0 0 0 0.437 0.121 0.789 0.789 0 0 0 0.681-0.345 1.427 1.427 0 0 0 0.206-0.8h-0.589a1.1 1.1 0 0 0-0.174 0.015 1.339 1.339 0 0 0-0.359 0.088 0.624 0.624 0 0 0-0.266 0.206 0.525 0.525 0 0 0-0.118 0.362z"/>
   <path d="m68.37 130.91h0.922v0.527h0.014a1.445 1.445 0 0 1 1.231-0.615 1.146 1.146 0 0 1 0.971 0.428 1.825 1.825 0 0 1 0.3 1.085v2.44h-0.974v-2.065c0-0.125 0-0.253-0.011-0.386a1.012 1.012 0 0 0-0.071-0.352 0.537 0.537 0 0 0-0.18-0.279 0.649 0.649 0 0 0-0.372-0.095 0.642 0.642 0 0 0-0.418 0.128 0.973 0.973 0 0 0-0.262 0.323 1.474 1.474 0 0 0-0.132 0.411 2.335 2.335 0 0 0-0.042 0.422v1.893h-0.976z"/>
   <path d="m75.557 134.34h-0.015a1.414 1.414 0 0 1-1.149 0.526 1.34 1.34 0 0 1-1.214-0.623 2.612 2.612 0 0 1-0.355-1.41 2.58 2.58 0 0 1 0.355-1.412 1.479 1.479 0 0 1 2.332-0.061h0.017v-2.214h0.972v5.628h-0.945zm-1.715-1.507a1.889 1.889 0 0 0 0.178 0.826 0.862 0.862 0 0 0 0.251 0.3 0.587 0.587 0 0 0 0.393 0.129 0.641 0.641 0 0 0 0.415-0.129 0.84 0.84 0 0 0 0.258-0.3 1.367 1.367 0 0 0 0.145-0.408 2.558 2.558 0 0 0 0.036-0.418 1.808 1.808 0 0 0-0.2-0.825 0.955 0.955 0 0 0-0.269-0.3 0.7 0.7 0 0 0-0.4-0.111 0.673 0.673 0 0 0-0.638 0.411 1.477 1.477 0 0 0-0.124 0.4 2.083 2.083 0 0 0-0.045 0.425z"/>
   <path d="m79.959 129.54h1.018v5.236h-1.018z"/>
   <path d="m82.157 130.91h0.922v0.527h0.014a1.445 1.445 0 0 1 1.231-0.615 1.146 1.146 0 0 1 0.971 0.428 1.825 1.825 0 0 1 0.3 1.085v2.44h-0.974v-2.065c0-0.125 0-0.253-0.011-0.386a1.035 1.035 0 0 0-0.07-0.352 0.545 0.545 0 0 0-0.181-0.279 0.76 0.76 0 0 0-0.79 0.033 0.973 0.973 0 0 0-0.262 0.323 1.474 1.474 0 0 0-0.132 0.411 2.335 2.335 0 0 0-0.042 0.422v1.893h-0.974z"/>
   <path d="m86.853 130.91h0.922v0.527h0.014a1.445 1.445 0 0 1 1.231-0.615 1.146 1.146 0 0 1 0.971 0.428 1.832 1.832 0 0 1 0.3 1.085v2.44h-0.974v-2.065c0-0.125 0-0.253-0.011-0.386a1.012 1.012 0 0 0-0.071-0.352 0.537 0.537 0 0 0-0.18-0.279 0.651 0.651 0 0 0-0.372-0.095 0.642 0.642 0 0 0-0.418 0.128 0.988 0.988 0 0 0-0.263 0.323 1.506 1.506 0 0 0-0.131 0.411 2.335 2.335 0 0 0-0.042 0.422v1.893h-0.974z"/>
   <path d="m91.307 132.87a2.028 2.028 0 0 1 0.565-1.509 2.08 2.08 0 0 1 2.794 0 2.052 2.052 0 0 1 0.561 1.509 2.025 2.025 0 0 1-0.512 1.411 2.078 2.078 0 0 1-2.893 0 2.018 2.018 0 0 1-0.515-1.411zm1.018-0.121a1.457 1.457 0 0 0 0.018 0.227c0.01 0.084 0.021 0.163 0.035 0.239a1.486 1.486 0 0 0 0.146 0.438 0.813 0.813 0 0 0 0.291 0.308 0.737 0.737 0 0 0 0.451 0.129 0.855 0.855 0 0 0 0.471-0.122 0.83 0.83 0 0 0 0.291-0.308 1.346 1.346 0 0 0 0.146-0.438 3.2 3.2 0 0 0 0.035-0.473 1.416 1.416 0 0 0-0.227-0.806 0.834 0.834 0 0 0-0.716-0.345 0.807 0.807 0 0 0-0.7 0.353 1.344 1.344 0 0 0-0.241 0.798z"/>
   <path d="m95.75 130.91h1.077l0.964 2.818h0.014l0.918-2.818h0.977l-1.382 3.865h-1.136z"/>
   <path d="m100.69 131.11a3.19 3.19 0 0 1 1.3-0.293 1.41 1.41 0 0 1 1.615 1.627v0.494q0 0.566 0.016 0.967 0.015 0.429 0.042 0.865h-0.859a5.067 5.067 0 0 1-0.042-0.579h-0.015a1.218 1.218 0 0 1-0.486 0.487 1.336 1.336 0 0 1-0.672 0.184 1.482 1.482 0 0 1-0.9-0.3 1 1 0 0 1-0.412-0.85 1.2 1.2 0 0 1 0.188-0.7 1.064 1.064 0 0 1 0.451-0.4 2.037 2.037 0 0 1 0.618-0.186 5.725 5.725 0 0 1 0.639-0.037h0.54a0.853 0.853 0 0 0-0.206-0.652 0.932 0.932 0 0 0-0.64-0.184 1.86 1.86 0 0 0-1.153 0.422zm0.525 2.545a0.389 0.389 0 0 0 0.181 0.353 0.732 0.732 0 0 0 0.437 0.121 0.791 0.791 0 0 0 0.682-0.345 1.427 1.427 0 0 0 0.206-0.8h-0.59a1.114 1.114 0 0 0-0.174 0.015 1.323 1.323 0 0 0-0.358 0.088 0.633 0.633 0 0 0-0.267 0.206 0.524 0.524 0 0 0-0.117 0.362z"/>
   <path d="m105.14 131.64h-0.718v-0.732h0.718v-0.774l0.974-0.322v1.1h0.868v0.732h-0.868v1.809a0.823 0.823 0 0 0 0.093 0.433 0.377 0.377 0 0 0 0.366 0.206 0.826 0.826 0 0 0 0.444-0.106l0.029 0.791a2.47 2.47 0 0 1-0.721 0.092 1.1 1.1 0 0 1-1.185-1.251z"/>
   <path d="m107.87 129.24h0.973v0.961h-0.973zm0 1.664h0.973v3.865h-0.973z"/>
   <path d="m109.8 132.87a2.029 2.029 0 0 1 0.566-1.509 2.08 2.08 0 0 1 2.794 0 2.056 2.056 0 0 1 0.56 1.509 2.024 2.024 0 0 1-0.511 1.411 2.078 2.078 0 0 1-2.893 0 2.014 2.014 0 0 1-0.516-1.411zm1.019-0.121a1.587 1.587 0 0 0 0.017 0.227c0.01 0.084 0.022 0.163 0.035 0.239a1.516 1.516 0 0 0 0.146 0.438 0.813 0.813 0 0 0 0.291 0.308 0.739 0.739 0 0 0 0.451 0.129 0.856 0.856 0 0 0 0.472-0.122 0.838 0.838 0 0 0 0.291-0.308 1.37 1.37 0 0 0 0.145-0.438 3.071 3.071 0 0 0 0.036-0.473 1.416 1.416 0 0 0-0.228-0.806 0.833 0.833 0 0 0-0.716-0.345 0.8 0.8 0 0 0-0.7 0.353 1.337 1.337 0 0 0-0.236 0.798z"/>
   <path d="m114.74 130.91h0.922v0.527h0.014a1.445 1.445 0 0 1 1.231-0.615 1.146 1.146 0 0 1 0.971 0.428 1.825 1.825 0 0 1 0.3 1.085v2.44h-0.974v-2.065c0-0.125 0-0.253-0.011-0.386a1.035 1.035 0 0 0-0.07-0.352 0.552 0.552 0 0 0-0.181-0.279 0.651 0.651 0 0 0-0.372-0.095 0.642 0.642 0 0 0-0.418 0.128 0.976 0.976 0 0 0-0.263 0.323 1.506 1.506 0 0 0-0.131 0.411 2.341 2.341 0 0 0-0.043 0.422v1.893h-0.973z"/>
   <path d="m124.45 130.49a2.565 2.565 0 0 0-1.034-0.228 1.246 1.246 0 0 0-0.263 0.029 0.791 0.791 0 0 0-0.259 0.115 0.608 0.608 0 0 0-0.2 0.226 0.746 0.746 0 0 0-0.078 0.36 0.411 0.411 0 0 0 0.1 0.279 1.188 1.188 0 0 0 0.256 0.2 2.808 2.808 0 0 0 0.362 0.165c0.128 0.056 0.262 0.114 0.4 0.173a3.546 3.546 0 0 1 0.408 0.193 1.512 1.512 0 0 1 0.355 0.294 1.416 1.416 0 0 1 0.256 0.4 1.715 1.715 0 0 1 0.085 0.576 1.388 1.388 0 0 1-0.557 1.217 2.34 2.34 0 0 1-1.346 0.371 2.985 2.985 0 0 1-0.661-0.063c-0.185-0.033-0.4-0.081-0.643-0.141l0.1-0.941a2.275 2.275 0 0 0 1.147 0.324 1.175 1.175 0 0 0 0.6-0.166 0.56 0.56 0 0 0 0.3-0.509 0.6 0.6 0 0 0-0.085-0.323 0.863 0.863 0 0 0-0.256-0.224 6.333 6.333 0 0 0-0.764-0.349 2.512 2.512 0 0 1-0.4-0.209 1.906 1.906 0 0 1-0.366-0.271 1.466 1.466 0 0 1-0.256-0.4 1.41 1.41 0 0 1-0.1-0.55 1.44 1.44 0 0 1 0.558-1.248 2.128 2.128 0 0 1 1.215-0.352 3.819 3.819 0 0 1 1.214 0.185z"/>
   <path d="m126.01 129.54h3v0.82h-1.981v1.3h1.81v0.819h-1.81v1.478h2v0.82h-3.013z"/>
   <path d="m130.21 129.54h1.1c0.279 0 0.56 0 0.841 7e-3a2.607 2.607 0 0 1 0.77 0.151 1.1 1.1 0 0 1 0.568 0.418 1.511 1.511 0 0 1 0.209 0.842 1.22 1.22 0 0 1-0.277 0.8 1.162 1.162 0 0 1-0.771 0.41v0.016a0.494 0.494 0 0 1 0.338 0.19 1.472 1.472 0 0 1 0.2 0.351l0.813 2.049h-1.131l-0.611-1.635a0.935 0.935 0 0 0-0.241-0.421 0.739 0.739 0 0 0-0.465-0.121h-0.327v2.177h-1.017zm1.017 2.24h0.334a2.643 2.643 0 0 0 0.394-0.03 0.992 0.992 0 0 0 0.339-0.1 0.654 0.654 0 0 0 0.256-0.218 0.771 0.771 0 0 0 0.085-0.387 0.741 0.741 0 0 0-0.085-0.382 0.66 0.66 0 0 0-0.256-0.207 1.239 1.239 0 0 0-0.339-0.088c-0.133 0-0.264-8e-3 -0.394-8e-3h-0.334z"/>
   <path d="m134.9 129.54h1.017v5.236h-1.017z"/>
   <path class="cls-2" d="m21.266 25.807a28.69 28.69 0 0 0-10.613-1.739 28.693 28.693 0 0 0-10.616 1.739s-0.356 7.7 1.151 12.047a16.087 16.087 0 0 0 9.462 9.8 16.09 16.09 0 0 0 9.462-9.8c1.51-4.354 1.154-12.047 1.154-12.047z"/>
   <polygon class="cls-3" points="12.758 36.682 12.758 41.629 8.518 41.629 8.518 36.682 3.571 36.682 3.571 32.441 8.518 32.441 8.518 27.495 12.757 27.495 12.758 32.441 17.705 32.441 17.705 36.682"/>
  </g>
 </g>
</svg>
